<svg width="124" height="87" viewBox="0 0 124 87" fill="none" xmlns="http://www.w3.org/2000/svg">
<path d="M58.3857 47.6055L58.4488 56.8806" stroke="#7DB7FD"/>
<path opacity="0.2" d="M67.5484 31.8033L58.4404 37.0744L49.3323 31.8033L58.4404 26.4779L67.5484 31.8033Z" fill="#FBFCFE" stroke="#0277FF"/>
<path d="M67.5484 31.8033L58.4404 37.0744L49.3323 31.8033L58.4404 26.4779L67.5484 31.8033Z" stroke="#0277FF"/>
<path d="M57.9418 37.9412L57.9963 48.471L48.8969 43.1506L48.8424 32.6751L57.9418 37.9412Z" stroke="#0277FF"/>
<path d="M68.0429 43.1523L58.9964 48.4736L58.9419 37.9395L68.0429 32.6725V43.1523Z" stroke="#0277FF"/>
<path d="M66.2593 21.3839L58.166 16.8008" stroke="#0277FF"/>
<path d="M82.5615 14.3354L74.5312 19.0274" stroke="#7DB7FD"/>
<path d="M75.8542 17.7994L68.5316 22.0652L61.209 17.7994L68.5316 13.5772L75.8542 17.7994Z" stroke="#0277FF"/>
<path opacity="0.2" d="M68.0316 22.9311V31.3232L60.7119 27.1026V18.6671L68.0316 22.9311Z" fill="#FBFCFE" stroke="#0277FF"/>
<path d="M68.0316 22.9311V31.3232L60.7119 27.1026V18.6671L68.0316 22.9311Z" stroke="#0277FF"/>
<path d="M76.3509 27.0547L69.0312 31.3188V22.9311L76.3509 18.667V27.0547Z" stroke="#0277FF"/>
<path d="M70.2969 21.5684L62.2666 26.2603" stroke="#0277FF"/>
<path d="M50.3022 21.3839L58.3955 16.8008" stroke="#0277FF"/>
<path d="M34.4395 14.3354L42.4697 19.0274" stroke="#7DB7FD"/>
<path d="M41.1468 17.7994L48.4694 22.0652L55.7919 17.7994L48.4694 13.5772L41.1468 17.7994Z" stroke="#0277FF"/>
<path d="M48.9694 22.9311V31.3232L56.2891 27.1026V18.6671L48.9694 22.9311Z" stroke="#0277FF"/>
<path d="M40.6491 27.0547L47.9688 31.3188V22.9311L40.6491 18.667V27.0547Z" stroke="#0277FF"/>
<path d="M46.5381 21.5684L54.5684 26.2603" stroke="#0277FF"/>
<mask id="path-19-inside-1" fill="white">
<path fill-rule="evenodd" clip-rule="evenodd" d="M10.5204 0C9.43209 0 8.5498 0.882284 8.5498 1.97064V63.0971H107.45V1.97064C107.45 0.882286 106.568 0 105.48 0H10.5204Z"/>
</mask>
<path d="M8.5498 63.0971H6.5498V65.0971H8.5498V63.0971ZM107.45 63.0971V65.0971H109.45V63.0971H107.45ZM10.5498 1.97064C10.5498 1.97004 10.5498 1.97153 10.5492 1.97444C10.5487 1.97722 10.5478 1.98007 10.5467 1.98268C10.5446 1.98764 10.5424 1.9902 10.5412 1.9914C10.54 1.9926 10.5374 1.99477 10.5325 1.99687C10.5299 1.99797 10.527 1.99886 10.5242 1.99943C10.5213 2.00003 10.5198 2 10.5204 2V-2C8.32752 -2 6.5498 -0.222287 6.5498 1.97064H10.5498ZM10.5498 63.0971V1.97064H6.5498V63.0971H10.5498ZM8.5498 65.0971H107.45V61.0971H8.5498V65.0971ZM105.45 1.97064V63.0971H109.45V1.97064H105.45ZM105.48 2C105.48 2 105.479 2.00003 105.476 1.99943C105.473 1.99886 105.47 1.99797 105.468 1.99687C105.463 1.99477 105.46 1.9926 105.459 1.9914C105.458 1.9902 105.456 1.98764 105.454 1.98268C105.452 1.98008 105.452 1.97723 105.451 1.97444C105.45 1.97153 105.45 1.97004 105.45 1.97064H109.45C109.45 -0.222286 107.673 -2 105.48 -2V2ZM10.5204 2H105.48V-2H10.5204V2Z" fill="#0277FF" mask="url(#path-19-inside-1)"/>
<mask id="path-21-outside-2" maskUnits="userSpaceOnUse" x="0" y="61" width="116" height="9" fill="black">
<rect fill="white" y="61" width="116" height="9"/>
<path fill-rule="evenodd" clip-rule="evenodd" d="M112.029 68C113.118 68 114 67.1177 114 66.0294V63.4466L2 63.4466V66.0294C2 67.1177 2.88229 68 3.97064 68L112.029 68Z"/>
</mask>
<path d="M114 63.4466H116V61.4466H114V63.4466ZM2 63.4466V61.4466H0V63.4466H2ZM112 66.0294C112 66.03 112 66.0285 112.001 66.0256C112.001 66.0228 112.002 66.0199 112.003 66.0173C112.005 66.0124 112.007 66.0098 112.009 66.0086C112.01 66.0074 112.012 66.0052 112.017 66.0031C112.02 66.002 112.023 66.0011 112.026 66.0006C112.028 66 112.03 66 112.029 66V70C114.222 70 116 68.2223 116 66.0294H112ZM112 63.4466V66.0294H116V63.4466H112ZM114 61.4466L2 61.4466V65.4466L114 65.4466V61.4466ZM4 66.0294V63.4466H0V66.0294H4ZM3.97064 66C3.97004 66 3.97153 66 3.97444 66.0006C3.97723 66.0011 3.98007 66.002 3.98268 66.0031C3.98764 66.0052 3.9902 66.0074 3.9914 66.0086C3.99261 66.0098 3.99477 66.0124 3.99687 66.0173C3.99797 66.0199 3.99886 66.0228 3.99944 66.0256C4.00003 66.0285 4 66.03 4 66.0294H0C0 68.2223 1.77772 70 3.97064 70V66ZM112.029 66L3.97064 66V70L112.029 70V66Z" fill="#0277FF" mask="url(#path-21-outside-2)"/>
<rect x="91" y="34" width="32" height="52" rx="1" fill="#F7F8FB" stroke="#0277FF" stroke-width="2"/>
<path d="M107.386 62.6055L107.449 71.8806" stroke="#7DB7FD"/>
<path opacity="0.2" d="M116.548 46.8033L107.44 52.0744L98.3323 46.8033L107.44 41.4779L116.548 46.8033Z" fill="#FBFCFE" stroke="#0277FF"/>
<path d="M116.548 46.8033L107.44 52.0744L98.3323 46.8033L107.44 41.4779L116.548 46.8033Z" stroke="#0277FF"/>
<path d="M106.942 52.9412L106.996 63.471L97.8969 58.1506L97.8424 47.6751L106.942 52.9412Z" stroke="#0277FF"/>
<path d="M117.043 58.1523L107.996 63.4736L107.942 52.9395L117.043 47.6725V58.1523Z" stroke="#0277FF"/>
<path fill-rule="evenodd" clip-rule="evenodd" d="M107 81C108.657 81 110 79.6569 110 78C110 76.3431 108.657 75 107 75C105.343 75 104 76.3431 104 78C104 79.6569 105.343 81 107 81Z" stroke="#0277FF"/>
<path fill-rule="evenodd" clip-rule="evenodd" d="M17 9C18.1046 9 19 8.10457 19 7C19 5.89543 18.1046 5 17 5C15.8954 5 15 5.89543 15 7C15 8.10457 15.8954 9 17 9Z" stroke="#7DB7FD"/>
<path fill-rule="evenodd" clip-rule="evenodd" d="M24 9C25.1046 9 26 8.10457 26 7C26 5.89543 25.1046 5 24 5C22.8954 5 22 5.89543 22 7C22 8.10457 22.8954 9 24 9Z" stroke="#7DB7FD"/>
<path fill-rule="evenodd" clip-rule="evenodd" d="M31 9C32.1046 9 33 8.10457 33 7C33 5.89543 32.1046 5 31 5C29.8954 5 29 5.89543 29 7C29 8.10457 29.8954 9 31 9Z" stroke="#7DB7FD"/>
</svg>
