<svg width="1440" height="2774" viewBox="0 0 1440 2774" fill="none" xmlns="http://www.w3.org/2000/svg">
<path opacity="0.01" fill-rule="evenodd" clip-rule="evenodd" d="M1050.21 2773C2437.82 2773 3562.71 1648.12 3562.71 260.5C3562.71 -1127.12 2437.82 -2252 1050.21 -2252C-337.409 -2252 -1462.29 -1127.12 -1462.29 260.5C-1462.29 1648.12 -337.409 2773 1050.21 2773Z" stroke="#0277FF"/>
<path opacity="0.01" fill-rule="evenodd" clip-rule="evenodd" d="M1050.71 2723.99C2411.25 2723.99 3514.2 1621.05 3514.2 260.5C3514.2 -1100.05 2411.25 -2202.99 1050.71 -2202.99C-309.842 -2202.99 -1412.78 -1100.05 -1412.78 260.5C-1412.78 1621.05 -309.842 2723.99 1050.71 2723.99Z" stroke="#0277FF"/>
<path opacity="0.01" fill-rule="evenodd" clip-rule="evenodd" d="M1051.22 2675C2384.71 2675 3465.72 1593.99 3465.72 260.5C3465.72 -1072.99 2384.71 -2154 1051.22 -2154C-282.275 -2154 -1363.28 -1072.99 -1363.28 260.5C-1363.28 1593.99 -282.275 2675 1051.22 2675Z" stroke="#0277FF"/>
<path opacity="0.01" fill-rule="evenodd" clip-rule="evenodd" d="M1051.22 2625C2357.09 2625 3415.72 1566.38 3415.72 260.5C3415.72 -1045.38 2357.09 -2104 1051.22 -2104C-254.661 -2104 -1313.28 -1045.38 -1313.28 260.5C-1313.28 1566.38 -254.661 2625 1051.22 2625Z" stroke="#0277FF"/>
<path opacity="0.01" fill-rule="evenodd" clip-rule="evenodd" d="M1051.72 2575.99C2330.53 2575.99 3367.21 1539.31 3367.21 260.5C3367.21 -1018.31 2330.53 -2054.99 1051.72 -2054.99C-227.093 -2054.99 -1263.77 -1018.31 -1263.77 260.5C-1263.77 1539.31 -227.093 2575.99 1051.72 2575.99Z" stroke="#0277FF"/>
<path opacity="0.01" fill-rule="evenodd" clip-rule="evenodd" d="M1052.23 2527C2303.98 2527 3318.73 1512.25 3318.73 260.5C3318.73 -991.253 2303.98 -2006 1052.23 -2006C-199.526 -2006 -1214.27 -991.253 -1214.27 260.5C-1214.27 1512.25 -199.526 2527 1052.23 2527Z" stroke="#0277FF"/>
<path opacity="0.01" fill-rule="evenodd" clip-rule="evenodd" d="M1052.73 2477.99C2277.41 2477.99 3270.22 1485.19 3270.22 260.5C3270.22 -964.186 2277.41 -1956.99 1052.73 -1956.99C-171.958 -1956.99 -1164.76 -964.186 -1164.76 260.5C-1164.76 1485.19 -171.958 2477.99 1052.73 2477.99Z" stroke="#0277FF"/>
<path opacity="0.01" fill-rule="evenodd" clip-rule="evenodd" d="M1053.24 2429C2250.87 2429 3221.74 1458.13 3221.74 260.5C3221.74 -937.129 2250.87 -1908 1053.24 -1908C-144.391 -1908 -1115.26 -937.129 -1115.26 260.5C-1115.26 1458.13 -144.391 2429 1053.24 2429Z" stroke="#0277FF"/>
<path opacity="0.01" fill-rule="evenodd" clip-rule="evenodd" d="M1053.24 2379C2223.25 2379 3171.74 1430.52 3171.74 260.5C3171.74 -909.516 2223.25 -1858 1053.24 -1858C-116.777 -1858 -1065.26 -909.516 -1065.26 260.5C-1065.26 1430.52 -116.777 2379 1053.24 2379Z" stroke="#0277FF"/>
<path opacity="0.01" fill-rule="evenodd" clip-rule="evenodd" d="M1053.74 2329.99C2196.68 2329.99 3123.23 1403.45 3123.23 260.5C3123.23 -882.447 2196.68 -1808.99 1053.74 -1808.99C-89.2087 -1808.99 -1015.75 -882.447 -1015.75 260.5C-1015.75 1403.45 -89.2087 2329.99 1053.74 2329.99Z" stroke="#0277FF"/>
<path opacity="0.01" fill-rule="evenodd" clip-rule="evenodd" d="M1054.25 2281C2170.14 2281 3074.75 1376.39 3074.75 260.5C3074.75 -855.391 2170.14 -1760 1054.25 -1760C-61.6414 -1760 -966.25 -855.391 -966.25 260.5C-966.25 1376.39 -61.6414 2281 1054.25 2281Z" stroke="#0277FF"/>
<path opacity="0.01" fill-rule="evenodd" clip-rule="evenodd" d="M1054.75 2231.99C2143.57 2231.99 3026.24 1349.32 3026.24 260.5C3026.24 -828.323 2143.57 -1710.99 1054.75 -1710.99C-34.0721 -1710.99 -916.737 -828.323 -916.737 260.5C-916.737 1349.32 -34.0721 2231.99 1054.75 2231.99Z" stroke="#0277FF"/>
<path opacity="0.01" fill-rule="evenodd" clip-rule="evenodd" d="M1055.26 2183C2117.03 2183 2977.76 1322.27 2977.76 260.5C2977.76 -801.267 2117.03 -1662 1055.26 -1662C-6.50415 -1662 -867.236 -801.267 -867.236 260.5C-867.236 1322.27 -6.50415 2183 1055.26 2183Z" stroke="#0277FF"/>
<path opacity="0.01" fill-rule="evenodd" clip-rule="evenodd" d="M1055.26 2133C2089.42 2133 2927.76 1294.65 2927.76 260.5C2927.76 -773.653 2089.42 -1612 1055.26 -1612C21.1099 -1612 -817.237 -773.653 -817.237 260.5C-817.237 1294.65 21.1099 2133 1055.26 2133Z" stroke="#0277FF"/>
<path opacity="0.01" fill-rule="evenodd" clip-rule="evenodd" d="M1055.76 2083.99C2062.85 2083.99 2879.25 1267.58 2879.25 260.5C2879.25 -746.584 2062.85 -1562.99 1055.76 -1562.99C48.6789 -1562.99 -767.724 -746.584 -767.724 260.5C-767.724 1267.58 48.6789 2083.99 1055.76 2083.99Z" stroke="#0277FF"/>
<path opacity="0.01" fill-rule="evenodd" clip-rule="evenodd" d="M1056.28 2035C2036.31 2035 2830.78 1240.53 2830.78 260.5C2830.78 -719.529 2036.31 -1514 1056.28 -1514C76.2471 -1514 -718.224 -719.529 -718.224 260.5C-718.224 1240.53 76.2471 2035 1056.28 2035Z" stroke="#0277FF"/>
<path opacity="0.01" fill-rule="evenodd" clip-rule="evenodd" d="M1056.28 1985C2008.69 1985 2780.78 1212.92 2780.78 260.5C2780.78 -691.915 2008.69 -1464 1056.28 -1464C103.861 -1464 -668.224 -691.915 -668.224 260.5C-668.224 1212.92 103.861 1985 1056.28 1985Z" stroke="#0277FF"/>
<path opacity="0.01" fill-rule="evenodd" clip-rule="evenodd" d="M1056.78 1935.99C1982.12 1935.99 2732.26 1185.85 2732.26 260.5C2732.26 -664.845 1982.12 -1414.99 1056.78 -1414.99C131.431 -1414.99 -618.709 -664.845 -618.709 260.5C-618.709 1185.85 131.431 1935.99 1056.78 1935.99Z" stroke="#0277FF"/>
<path opacity="0.01" fill-rule="evenodd" clip-rule="evenodd" d="M1057.29 1887C1955.58 1887 2683.79 1158.79 2683.79 260.5C2683.79 -637.79 1955.58 -1366 1057.29 -1366C159.001 -1366 -569.208 -637.79 -569.208 260.5C-569.208 1158.79 159.001 1887 1057.29 1887Z" stroke="#0277FF"/>
<path opacity="0.01" fill-rule="evenodd" clip-rule="evenodd" d="M1057.29 1837C1927.97 1837 2633.79 1131.18 2633.79 260.5C2633.79 -610.178 1927.97 -1316 1057.29 -1316C186.614 -1316 -519.209 -610.178 -519.209 260.5C-519.209 1131.18 186.614 1837 1057.29 1837Z" stroke="#0277FF"/>
<path opacity="0.01" fill-rule="evenodd" clip-rule="evenodd" d="M1057.79 1787.98C1901.4 1787.98 2585.27 1104.11 2585.27 260.5C2585.27 -583.106 1901.4 -1266.98 1057.79 -1266.98C214.185 -1266.98 -469.692 -583.106 -469.692 260.5C-469.692 1104.11 214.185 1787.98 1057.79 1787.98Z" stroke="#0277FF"/>
<path opacity="0.01" fill-rule="evenodd" clip-rule="evenodd" d="M1058.31 1739C1874.86 1739 2536.81 1077.05 2536.81 260.5C2536.81 -556.053 1874.86 -1218 1058.31 -1218C241.755 -1218 -420.192 -556.053 -420.192 260.5C-420.192 1077.05 241.755 1739 1058.31 1739Z" stroke="#0277FF"/>
<path opacity="0.01" fill-rule="evenodd" clip-rule="evenodd" d="M1058.31 1689C1847.25 1689 2486.81 1049.44 2486.81 260.5C2486.81 -528.439 1847.25 -1168 1058.31 -1168C269.369 -1168 -370.192 -528.439 -370.192 260.5C-370.192 1049.44 269.369 1689 1058.31 1689Z" stroke="#0277FF"/>
<path opacity="0.03" fill-rule="evenodd" clip-rule="evenodd" d="M1058.81 1639.98C1820.67 1639.98 2438.29 1022.37 2438.29 260.5C2438.29 -501.367 1820.67 -1118.98 1058.81 -1118.98C296.941 -1118.98 -320.675 -501.367 -320.675 260.5C-320.675 1022.37 296.941 1639.98 1058.81 1639.98Z" stroke="#0277FF"/>
<path opacity="0.03" fill-rule="evenodd" clip-rule="evenodd" d="M1059.33 1591C1794.14 1591 2389.82 995.314 2389.82 260.5C2389.82 -474.314 1794.14 -1070 1059.33 -1070C324.511 -1070 -271.174 -474.314 -271.174 260.5C-271.174 995.314 324.511 1591 1059.33 1591Z" stroke="#0277FF"/>
<path opacity="0.03" fill-rule="evenodd" clip-rule="evenodd" d="M1059.33 1541C1766.53 1541 2339.83 967.701 2339.83 260.5C2339.83 -446.701 1766.53 -1020 1059.33 -1020C352.125 -1020 -221.175 -446.701 -221.175 260.5C-221.175 967.701 352.125 1541 1059.33 1541Z" stroke="#0277FF"/>
<path opacity="0.03" fill-rule="evenodd" clip-rule="evenodd" d="M1059.83 1491.98C1739.95 1491.98 2291.31 940.628 2291.31 260.5C2291.31 -419.627 1739.95 -970.979 1059.83 -970.979C379.698 -970.979 -171.654 -419.627 -171.654 260.5C-171.654 940.628 379.698 1491.98 1059.83 1491.98Z" stroke="#0277FF"/>
<path opacity="0.03" fill-rule="evenodd" clip-rule="evenodd" d="M1060.34 1443C1713.42 1443 2242.84 913.577 2242.84 260.5C2242.84 -392.576 1713.42 -921.999 1060.34 -921.999C407.269 -921.999 -122.154 -392.576 -122.154 260.5C-122.154 913.577 407.269 1443 1060.34 1443Z" stroke="#0277FF"/>
<path opacity="0.03" fill-rule="evenodd" clip-rule="evenodd" d="M1060.35 1393C1685.81 1393 2192.85 885.963 2192.85 260.5C2192.85 -364.963 1685.81 -872 1060.35 -872C434.883 -872 -72.1543 -364.963 -72.1543 260.5C-72.1543 885.963 434.883 1393 1060.35 1393Z" stroke="#0277FF"/>
<path opacity="0.03" fill-rule="evenodd" clip-rule="evenodd" d="M1060.84 1343.98C1659.23 1343.98 2144.32 858.888 2144.32 260.5C2144.32 -337.888 1659.23 -822.978 1060.84 -822.978C462.457 -822.978 -22.6328 -337.888 -22.6328 260.5C-22.6328 858.888 462.457 1343.98 1060.84 1343.98Z" stroke="#0277FF"/>
<path opacity="0.03" fill-rule="evenodd" clip-rule="evenodd" d="M1061.37 1295C1632.71 1295 2095.87 831.838 2095.87 260.5C2095.87 -310.838 1632.71 -773.999 1061.37 -773.999C490.03 -773.999 26.8691 -310.838 26.8691 260.5C26.8691 831.838 490.03 1295 1061.37 1295Z" stroke="#0277FF"/>
<path opacity="0.03" fill-rule="evenodd" clip-rule="evenodd" d="M1061.37 1245C1605.09 1245 2045.87 804.225 2045.87 260.5C2045.87 -283.225 1605.09 -724.001 1061.37 -724.001C517.643 -724.001 76.8672 -283.225 76.8672 260.5C76.8672 804.225 517.643 1245 1061.37 1245Z" stroke="#0277FF"/>
<path opacity="0.03" fill-rule="evenodd" clip-rule="evenodd" d="M1061.87 1195.97C1578.52 1195.97 1997.34 777.148 1997.34 260.5C1997.34 -256.148 1578.52 -674.974 1061.87 -674.974C545.22 -674.974 126.395 -256.148 126.395 260.5C126.395 777.148 545.22 1195.97 1061.87 1195.97Z" stroke="#0277FF"/>
<path opacity="0.05" fill-rule="evenodd" clip-rule="evenodd" d="M1062.39 1147C1551.99 1147 1948.89 750.1 1948.89 260.5C1948.89 -229.1 1551.99 -625.999 1062.39 -625.999C572.794 -625.999 175.896 -229.1 175.896 260.5C175.896 750.1 572.794 1147 1062.39 1147Z" stroke="#0277FF"/>
<path opacity="0.05" fill-rule="evenodd" clip-rule="evenodd" d="M1062.9 1097.97C1525.42 1097.97 1900.37 723.024 1900.37 260.5C1900.37 -202.024 1525.42 -576.974 1062.9 -576.974C600.372 -576.974 225.422 -202.024 225.422 260.5C225.422 723.024 600.372 1097.97 1062.9 1097.97Z" stroke="#0277FF"/>
<path opacity="0.05" fill-rule="evenodd" clip-rule="evenodd" d="M1063.42 1049C1498.9 1049 1851.92 695.974 1851.92 260.5C1851.92 -174.974 1498.9 -527.996 1063.42 -527.996C627.948 -527.996 274.927 -174.974 274.927 260.5C274.927 695.974 627.948 1049 1063.42 1049Z" stroke="#0277FF"/>
<path opacity="0.05" fill-rule="evenodd" clip-rule="evenodd" d="M1063.93 999.973C1472.33 999.973 1803.4 668.9 1803.4 260.5C1803.4 -147.9 1472.33 -478.973 1063.93 -478.973C655.527 -478.973 324.454 -147.9 324.454 260.5C324.454 668.9 655.527 999.973 1063.93 999.973Z" stroke="#0277FF"/>
<path opacity="0.05" fill-rule="evenodd" clip-rule="evenodd" d="M1064.45 950.992C1445.8 950.992 1754.95 641.848 1754.95 260.5C1754.95 -120.848 1445.8 -429.992 1064.45 -429.992C683.106 -429.992 373.962 -120.848 373.962 260.5C373.962 641.848 683.106 950.992 1064.45 950.992Z" stroke="#0277FF"/>
<path opacity="0.08" fill-rule="evenodd" clip-rule="evenodd" d="M1064.46 901.008C1418.2 901.008 1704.97 614.243 1704.97 260.5C1704.97 -93.2426 1418.2 -380.008 1064.46 -380.008C710.719 -380.008 423.954 -93.2426 423.954 260.5C423.954 614.243 710.719 901.008 1064.46 901.008Z" stroke="#0277FF"/>
<path opacity="0.05" fill-rule="evenodd" clip-rule="evenodd" d="M1064.95 851.954C1391.61 851.954 1656.41 587.151 1656.41 260.5C1656.41 -66.1512 1391.61 -330.954 1064.95 -330.954C738.303 -330.954 473.5 -66.1512 473.5 260.5C473.5 587.151 738.303 851.954 1064.95 851.954Z" stroke="#0277FF"/>
<path opacity="0.08" fill-rule="evenodd" clip-rule="evenodd" d="M1065.5 803C1365.11 803 1608 560.114 1608 260.5C1608 -39.1145 1365.11 -282 1065.5 -282C765.886 -282 523 -39.1145 523 260.5C523 560.114 765.886 803 1065.5 803Z" stroke="#0277FF"/>
<path opacity="0.1" fill-rule="evenodd" clip-rule="evenodd" d="M1065.5 753C1337.5 753 1558 532.5 1558 260.5C1558 -11.5002 1337.5 -232 1065.5 -232C793.5 -232 573 -11.5002 573 260.5C573 532.5 793.5 753 1065.5 753Z" stroke="#0277FF"/>
<path opacity="0.1" fill-rule="evenodd" clip-rule="evenodd" d="M1065.5 703C1309.89 703 1508 504.886 1508 260.5C1508 16.114 1309.89 -182 1065.5 -182C821.114 -182 623 16.114 623 260.5C623 504.886 821.114 703 1065.5 703Z" stroke="#0277FF"/>
<path opacity="0.15" fill-rule="evenodd" clip-rule="evenodd" d="M1065.5 653C1282.27 653 1458 477.272 1458 260.5C1458 43.7282 1282.27 -132 1065.5 -132C848.728 -132 673 43.7282 673 260.5C673 477.272 848.728 653 1065.5 653Z" stroke="#0277FF"/>
<path opacity="0.15" fill-rule="evenodd" clip-rule="evenodd" d="M1065.5 603C1254.66 603 1408 449.658 1408 260.5C1408 71.3425 1254.66 -82 1065.5 -82C876.342 -82 723 71.3425 723 260.5C723 449.658 876.342 603 1065.5 603Z" stroke="#0277FF"/>
<path opacity="0.15" fill-rule="evenodd" clip-rule="evenodd" d="M1065.5 553C1227.04 553 1358 422.043 1358 260.5C1358 98.9567 1227.04 -32 1065.5 -32C903.957 -32 773 98.9567 773 260.5C773 422.043 903.957 553 1065.5 553Z" stroke="#0277FF"/>
<path opacity="0.2" fill-rule="evenodd" clip-rule="evenodd" d="M1065.5 503C1199.43 503 1308 394.429 1308 260.5C1308 126.571 1199.43 18 1065.5 18C931.571 18 823 126.571 823 260.5C823 394.429 931.571 503 1065.5 503Z" stroke="#0277FF"/>
<path opacity="0.2" fill-rule="evenodd" clip-rule="evenodd" d="M1065.5 453C1171.81 453 1258 366.815 1258 260.5C1258 154.185 1171.81 68 1065.5 68C959.185 68 873 154.185 873 260.5C873 366.815 959.185 453 1065.5 453Z" stroke="#0277FF"/>
<path opacity="0.2" fill-rule="evenodd" clip-rule="evenodd" d="M1065.5 403C1144.2 403 1208 339.201 1208 260.5C1208 181.799 1144.2 118 1065.5 118C986.799 118 923 181.799 923 260.5C923 339.201 986.799 403 1065.5 403Z" stroke="#0277FF"/>
<path fill-rule="evenodd" clip-rule="evenodd" d="M1065.5 353C1116.59 353 1158 311.586 1158 260.5C1158 209.414 1116.59 168 1065.5 168C1038.1 168 1013.49 179.909 996.553 198.833H1057.43C1086.83 198.833 1110.66 222.409 1110.66 251.491C1110.66 251.715 1110.66 251.939 1110.65 252.163C1110.28 280.952 1086.38 303.99 1057.28 303.619L1054.19 303.579L1013.33 303.304L1003.41 329.064C1019.82 343.939 1041.6 353 1065.5 353ZM1053.36 239.279H975.445C976.838 233.347 978.802 227.634 981.276 222.202H1057.43C1073.78 222.202 1087.03 235.315 1087.03 251.861C1086.83 267.746 1073.64 280.456 1057.58 280.252L1054.42 280.211L1005.29 279.88L997.092 279.825L986.191 308.133C981.514 300.363 977.947 291.85 975.709 282.813L983.352 262.648H1053.36C1059.88 262.648 1065.17 257.417 1065.17 250.964C1065.17 244.511 1059.88 239.279 1053.36 239.279Z" fill="#0277FF"/>
<mask id="mask0" mask-type="alpha" maskUnits="userSpaceOnUse" x="975" y="168" width="183" height="185">
<path fill-rule="evenodd" clip-rule="evenodd" d="M1065.5 353C1116.59 353 1158 311.586 1158 260.5C1158 209.414 1116.59 168 1065.5 168C1038.1 168 1013.49 179.909 996.553 198.833H1057.43C1086.83 198.833 1110.66 222.409 1110.66 251.491C1110.66 251.715 1110.66 251.939 1110.65 252.163C1110.28 280.952 1086.38 303.99 1057.28 303.619L1054.19 303.579L1013.33 303.304L1003.41 329.064C1019.82 343.939 1041.6 353 1065.5 353ZM1053.36 239.279H975.445C976.838 233.347 978.802 227.634 981.276 222.202H1057.43C1073.78 222.202 1087.03 235.315 1087.03 251.861C1086.83 267.746 1073.64 280.456 1057.58 280.252L1054.42 280.211L1005.29 279.88L997.092 279.825L986.191 308.133C981.514 300.363 977.947 291.85 975.709 282.813L983.352 262.648H1053.36C1059.88 262.648 1065.17 257.417 1065.17 250.964C1065.17 244.511 1059.88 239.279 1053.36 239.279Z" fill="white"/>
</mask>
<g mask="url(#mask0)">
</g>
</svg>
