<svg width="80" height="71" viewBox="0 0 80 71" fill="none" xmlns="http://www.w3.org/2000/svg">
<path d="M1 13C1 10.7909 2.79086 9 5 9H8H21H36H40H68H75C77.2091 9 79 10.7909 79 13V63C79 65.2091 77.2091 67 75 67H5C2.79086 67 1 65.2091 1 63V13Z" stroke="#0277FF" stroke-width="2"/>
<path d="M17.088 60C17.58 60 17.958 59.844 18.174 59.622C18.324 59.472 18.468 59.214 18.468 58.836C18.468 58.518 18.36 58.26 18.198 58.104C18.072 57.984 17.862 57.888 17.652 57.864C17.802 57.798 17.892 57.708 17.976 57.552C18.06 57.384 18.09 57.234 18.09 57.06C18.09 56.706 17.982 56.46 17.844 56.31C17.598 56.04 17.256 55.998 16.968 55.998H15.42V60H17.088ZM16.458 56.796H16.65C16.854 56.796 16.98 56.85 17.046 56.916C17.106 56.982 17.142 57.084 17.142 57.186C17.142 57.276 17.112 57.384 17.046 57.45C16.938 57.564 16.758 57.576 16.65 57.576H16.458V56.796ZM16.458 58.35H16.674C16.932 58.35 17.19 58.356 17.316 58.482C17.376 58.542 17.418 58.644 17.418 58.77C17.418 58.884 17.382 58.974 17.334 59.028C17.22 59.16 16.98 59.19 16.692 59.19H16.458V58.35ZM19.129 55.998V58.296C19.129 58.722 19.171 59.232 19.519 59.61C19.765 59.874 20.215 60.09 20.845 60.09C21.409 60.09 21.829 59.934 22.165 59.592C22.597 59.154 22.615 58.716 22.615 58.296V55.998H21.577V58.278C21.577 58.5 21.583 58.794 21.343 59.004C21.229 59.106 21.043 59.178 20.863 59.178C20.683 59.178 20.491 59.1 20.371 58.986C20.173 58.794 20.167 58.536 20.167 58.368V55.998H19.129ZM24.4072 60H25.4512V58.08L26.9452 55.998H25.6852L24.9592 57.09L24.2032 55.998H22.9612L24.4072 58.08V60Z" fill="#0277FF"/>
<path opacity="0.2" d="M40 47H78V63C78 64.6569 76.6569 66 75 66H40V47Z" fill="#0277FF"/>
<path d="M53.24 59.64C53.528 59.838 53.78 59.934 53.846 59.958C54.14 60.066 54.38 60.09 54.632 60.09C55.058 60.09 55.472 60.024 55.814 59.682C56.102 59.394 56.192 59.04 56.192 58.674C56.192 58.398 56.138 58.176 55.934 57.96C55.724 57.732 55.46 57.642 55.208 57.564L54.89 57.468C54.644 57.396 54.572 57.324 54.542 57.288C54.5 57.234 54.488 57.18 54.488 57.108C54.488 57.018 54.53 56.952 54.59 56.892C54.692 56.796 54.83 56.772 54.932 56.772C55.07 56.772 55.304 56.796 55.616 57.042L56.03 56.232C55.652 56.034 55.19 55.908 54.794 55.908C54.308 55.908 53.972 56.082 53.768 56.286C53.594 56.46 53.402 56.76 53.402 57.252C53.402 57.456 53.426 57.738 53.63 57.96C53.792 58.14 54.038 58.23 54.206 58.284L54.476 58.368C54.734 58.446 54.89 58.488 54.992 58.578C55.076 58.65 55.106 58.74 55.106 58.818C55.106 58.92 55.064 59.01 55.004 59.07C54.938 59.142 54.812 59.208 54.602 59.208C54.242 59.208 53.906 59.01 53.684 58.8L53.24 59.64ZM59.1217 55.998H56.8477V60H59.1217V59.118H57.8857V58.428H59.0557V57.546H57.8857V56.88H59.1217V55.998ZM59.7833 55.998V60H62.0693V59.118H60.8213V55.998H59.7833ZM62.6016 55.998V60H64.8876V59.118H63.6396V55.998H62.6016Z" fill="#0277FF"/>
<rect x="2" y="46" width="76" height="1" fill="#7DB7FD"/>
<rect x="3" y="70" width="74" height="1" rx="0.5" fill="#0277FF"/>
<rect x="2" y="29" width="76" height="1" fill="#7DB7FD"/>
<rect x="15" y="25" width="1" height="18" rx="0.5" fill="#0277FF"/>
<path fill-rule="evenodd" clip-rule="evenodd" d="M16.5 15C20.0899 15 23 12.0899 23 8.5C23 4.91015 20.0899 2 16.5 2C12.9101 2 10 4.91015 10 8.5C10 12.0899 12.9101 15 16.5 15Z" fill="#F7F8FB" stroke="#0277FF"/>
<path d="M17.264 10.86C17.12 10.986 16.838 11.178 16.334 11.178C16.208 11.178 15.968 11.166 15.764 11.058C15.59 10.968 15.488 10.848 15.428 10.71H16.454L16.67 10.17H15.296C15.284 10.074 15.278 9.972 15.29 9.87H16.79L17.006 9.33H15.398C15.452 9.174 15.554 9.048 15.722 8.958C15.89 8.862 16.112 8.826 16.31 8.826C16.508 8.826 16.802 8.868 17.096 9.054L17.444 8.178C17.252 8.07 16.904 7.914 16.352 7.914C15.836 7.914 15.374 8.046 15.026 8.304C14.732 8.52 14.468 8.85 14.354 9.33H14.096L13.88 9.87H14.276C14.27 9.978 14.27 10.08 14.276 10.17H14.096L13.88 10.71H14.348C14.444 11.118 14.672 11.49 14.966 11.718C15.314 11.988 15.812 12.09 16.232 12.09C16.526 12.09 16.922 12.036 17.264 11.862V10.86Z" fill="#0277FF"/>
<path fill-rule="evenodd" clip-rule="evenodd" d="M27 17C31.4183 17 35 13.4183 35 9C35 4.58172 31.4183 1 27 1C22.5817 1 19 4.58172 19 9C19 13.4183 22.5817 17 27 17Z" fill="#F7F8FB" stroke="#0277FF" stroke-width="2"/>
<path d="M26.403 6.025V7.015C25.971 7.096 25.575 7.312 25.305 7.609C25.044 7.897 24.855 8.311 24.855 8.878C24.855 9.283 24.945 9.616 25.242 9.922C25.377 10.066 25.656 10.282 26.232 10.48L26.763 10.66C26.952 10.723 27.078 10.777 27.168 10.84C27.285 10.93 27.348 11.047 27.348 11.182C27.348 11.326 27.285 11.461 27.186 11.56C27.051 11.695 26.844 11.767 26.601 11.767C26.34 11.767 26.007 11.668 25.782 11.56C25.584 11.461 25.35 11.281 25.161 11.101L24.513 12.307C24.819 12.55 25.125 12.712 25.386 12.82C25.719 12.955 26.052 13.027 26.403 13.036V14.008H27.303V12.991C27.699 12.892 28.122 12.676 28.383 12.406C28.581 12.199 28.887 11.776 28.887 11.047C28.887 10.642 28.788 10.291 28.437 9.949C28.095 9.616 27.717 9.49 27.393 9.382L26.925 9.22C26.79 9.175 26.601 9.076 26.511 8.995C26.421 8.905 26.385 8.797 26.385 8.698C26.385 8.563 26.448 8.464 26.52 8.401C26.646 8.284 26.853 8.239 27.06 8.239C27.501 8.239 27.87 8.473 28.068 8.626L28.662 7.474C28.059 7.114 27.6 7.033 27.303 7.015V6.025H26.403Z" fill="#0277FF"/>
<path fill-rule="evenodd" clip-rule="evenodd" d="M59.5 15C55.9101 15 53 12.0899 53 8.5C53 4.91015 55.9101 2 59.5 2C63.0899 2 66 4.91015 66 8.5C66 12.0899 63.0899 15 59.5 15Z" fill="#F7F8FB" stroke="#0277FF"/>
<path fill-rule="evenodd" clip-rule="evenodd" d="M61.9282 8.13651L59.9835 7.26667L58.0987 8.15873L59.9865 5L61.9282 8.13651ZM61.9222 9.10159L59.9806 10.2952L58 9.10159L59.9626 12L61.9222 9.10159ZM58.006 8.62222L59.9746 7.69206L62 8.59683L59.9746 9.79048L58.006 8.62222Z" fill="#0277FF"/>
<path fill-rule="evenodd" clip-rule="evenodd" d="M49 17C44.5817 17 41 13.4183 41 9C41 4.58172 44.5817 1 49 1C53.4183 1 57 4.58172 57 9C57 13.4183 53.4183 17 49 17Z" fill="#F7F8FB" stroke="#0277FF" stroke-width="2"/>
<path fill-rule="evenodd" clip-rule="evenodd" d="M51.5468 7.46198C51.4595 6.58826 50.6764 6.29535 49.6876 6.21193L49.6876 5L48.9216 5.00008L48.9216 6.18006C48.7202 6.18009 48.5144 6.18392 48.3099 6.18785L48.31 5.00005L47.5444 5.00003L47.5441 6.21161C47.3783 6.21487 47.2154 6.21784 47.0566 6.21794L47.0565 6.21418L46 6.21384L46.0002 7.00171C46.0002 7.00171 46.5659 6.99133 46.5565 7.00136C46.8667 7.00145 46.9677 7.17492 46.9971 7.32461L46.9972 8.70525C47.0186 8.70537 47.0465 8.70622 47.0781 8.7104L47.0522 8.71039C47.0344 8.71036 47.016 8.71034 46.9972 8.7105L46.997 10.6446C46.9834 10.7387 46.926 10.8886 46.7092 10.889C46.719 10.8973 46.1524 10.8888 46.1524 10.8888L46.0002 11.7698L46.9971 11.7698C47.1084 11.7699 47.2187 11.7711 47.3279 11.7722H47.3279C47.4005 11.7729 47.4727 11.7737 47.5443 11.7741L47.5446 12.9999L48.3098 13L48.3098 11.7872C48.5199 11.7914 48.7232 11.793 48.9217 11.7928L48.9213 13L49.6873 12.9999L49.6876 11.7764C50.9754 11.7052 51.8767 11.3928 51.9887 10.2281C52.079 9.29033 51.621 8.87189 50.8899 8.70283C51.334 8.48504 51.6117 8.10131 51.5468 7.46198ZM50.4751 10.0829C50.4755 10.9233 49.1047 10.9049 48.4774 10.8965C48.421 10.8958 48.3706 10.8951 48.3277 10.8952L48.3279 9.27114C48.3801 9.27115 48.4435 9.26971 48.5154 9.26807C49.158 9.25346 50.4751 9.2235 50.4751 10.0829ZM48.4539 8.52918C48.9772 8.53747 50.1186 8.55555 50.1188 7.79161C50.1187 7.01028 49.0212 7.03828 48.4852 7.05196C48.4249 7.05349 48.3717 7.05485 48.328 7.05485L48.3279 8.52776C48.3639 8.52776 48.4064 8.52843 48.4539 8.52918Z" fill="#0277FF"/>
<rect x="12" y="29" width="7" height="10" rx="1" fill="#0277FF"/>
<rect x="34" y="33" width="1" height="23" rx="0.5" fill="#0277FF"/>
<rect x="31" y="38" width="7" height="10" rx="1" fill="#0277FF"/>
<path fill-rule="evenodd" clip-rule="evenodd" d="M53 24.5C53 24.2239 53.2239 24 53.5 24C53.7761 24 54 24.2239 54 24.5V41.5C54 41.7761 53.7761 42 53.5 42C53.2239 42 53 41.7761 53 41.5V24.5Z" fill="#0277FF"/>
<rect x="50" y="29" width="7" height="8" rx="1" fill="#0277FF"/>
<rect x="25" y="21" width="1" height="5.09091" rx="0.5" fill="#7DB7FD"/>
<rect x="25" y="43.9092" width="1" height="5.09091" rx="0.5" fill="#7DB7FD"/>
<rect x="22.5" y="25.7424" width="6" height="18.5152" rx="0.5" stroke="#7DB7FD"/>
<rect x="44" y="21" width="1" height="4.18182" rx="0.5" fill="#7DB7FD"/>
<rect x="44" y="39.8181" width="1" height="4.18182" rx="0.5" fill="#7DB7FD"/>
<rect x="41.5" y="24.9849" width="6" height="15.0303" rx="0.5" stroke="#7DB7FD"/>
<rect x="62" y="27" width="1" height="6" rx="0.5" fill="#7DB7FD"/>
<rect x="62" y="44" width="1" height="6" rx="0.5" fill="#7DB7FD"/>
<path d="M59.5 33C59.5 32.7239 59.7239 32.5 60 32.5H65C65.2761 32.5 65.5 32.7239 65.5 33V44C65.5 44.2761 65.2761 44.5 65 44.5H60C59.7239 44.5 59.5 44.2761 59.5 44V33Z" stroke="#7DB7FD"/>
</svg>
