<svg width="1440" height="231" viewBox="0 0 1440 231" fill="none" xmlns="http://www.w3.org/2000/svg">
<rect width="1440" height="231" fill="#F7F8FB"/>
<rect width="1440" height="231" fill="#0277FF"/>
<mask id="mask0" mask-type="alpha" maskUnits="userSpaceOnUse" x="0" y="0" width="1440" height="231">
<rect width="1440" height="231" fill="white"/>
<rect width="1440" height="231" stroke="white"/>
</mask>
<g mask="url(#mask0)">
<g opacity="0.6">
<path fill-rule="evenodd" clip-rule="evenodd" d="M-3565 518.824C-3565 518.824 -3527.48 311.918 -3507.47 311.75C-3487.47 311.583 -3473.18 427.121 -3456.86 429.241C-3440.54 431.361 -3452.78 386.842 -3420.13 386.842C-3387.49 386.842 -3424.21 334.903 -3379.33 334.903C-3334.44 334.903 -3319.87 311.762 -3319.87 311.762C-3319.87 311.762 -3299.75 233.144 -3289.55 233.144C-3279.35 233.144 -3265.06 323.243 -3236.5 323.243C-3207.93 323.243 -3181.41 209.824 -3156.92 209.824C-3132.44 209.824 -3115.94 280.743 -3096.65 280.793C-3077.35 280.843 -3053.33 260.766 -3036.78 260.735C-3020.22 260.704 -2997.46 277.104 -2981.45 277.663C-2965.44 278.222 -2936.85 264.278 -2921.4 264.611C-2905.96 264.944 -2887.59 334.903 -2875.35 334.903C-2863.11 334.903 -2862.49 270.548 -2839.34 270.396C-2816.18 270.243 -2774.6 290.06 -2757.65 290.221C-2740.69 290.383 -2617.36 302.528 -2602.51 302.285C-2587.66 302.043 -2582.23 334.237 -2567.25 334.903C-2552.28 335.568 -2544.03 308.197 -2521.97 307.77C-2499.92 307.343 -2464.18 315.008 -2446.34 315.415C-2428.51 315.823 -2407.03 233.09 -2387.7 233.144C-2368.37 233.198 -2374.11 281.491 -2358.46 282.227C-2342.81 282.963 -2314.27 301.254 -2308.14 289.989C-2302 278.723 -2294.37 201.973 -2277.79 202.188C-2261.2 202.404 -2203.1 255.427 -2188.28 255.415C-2173.46 255.404 -2125.7 226.985 -2108.77 227.944C-2091.85 228.904 -2048.67 269.418 -2024.35 269.301C-2000.03 269.183 -1997.99 201.344 -1975.54 201.344C-1953.1 201.344 -1956.04 245.659 -1948.45 250.532C-1940.86 255.404 -1885.05 266.538 -1866.03 266.801C-1847 267.063 -1822.89 234.941 -1797.2 234.572C-1771.51 234.204 -1728.98 245.019 -1711.47 244.911C-1693.97 244.804 -1685.79 214.869 -1673.45 211.307C-1661.11 207.744 -1604.37 212.789 -1595.1 211.307C-1585.83 209.824 -1500.74 134.18 -1474.93 133.313C-1461.89 132.874 -1437.14 111.121 -1414.15 110.628C-1391.65 110.146 -1370.83 130.923 -1364.33 130.725C-1351.19 130.325 -1284.1 186.328 -1264.59 186.946C-1245.09 187.565 -1203.54 125.185 -1182.49 125.105C-1161.43 125.025 -1131.54 181.506 -1097.79 198.564C-1064.04 215.623 -1005.22 227.352 -973.394 230.793C-941.57 234.234 -887.215 222.899 -874.355 222.721C-861.496 222.544 -827.068 280.516 -809.596 281.21C-792.124 281.903 -721.505 196.181 -706.825 196.113C-692.145 196.044 -647.257 220.424 -631.337 220.134C-615.417 219.844 -477.317 159.837 -447.005 159.921C-416.694 160.005 -408.32 98.5257 -392.103 98.5257C-375.886 98.5257 -377.554 158.508 -347.135 158.196C-342.699 158.151 -306.147 139.689 -246.892 140.779C-231.605 141.061 -214.807 158.37 -196.66 158.782C-165.5 159.488 -130.36 139.072 -92.0598 139.915C-67.4617 140.457 -41.5598 204.686 -14.5708 205.395C13.1448 206.123 42.0066 185.504 71.7803 185.954C106.989 186.486 143.473 165.754 180.843 166.166C196.719 166.341 212.754 187.731 228.92 187.935C258.168 188.304 287.844 146.23 317.769 146.516C365.068 146.969 412.992 169.033 460.846 170.215C494.77 171.053 528.657 129.488 562.262 130.314C604.589 131.355 605.66 154.199 646.593 156.287C670.305 157.497 693.958 137.521 717.416 138.75C735.458 139.696 753.384 161.937 771.132 163.059C783.7 163.853 796.178 122.233 808.544 122.999C827.95 124.2 847.081 83.2604 865.851 84.927C887.331 86.8341 908.338 112.79 928.744 115.984C948.323 119.048 967.349 79.9367 985.708 83.3611C1002.72 86.5339 1019.16 47.9955 1034.93 52.3424C1068.26 61.5271 1076.04 86.8637 1089.7 97.8129C1131.61 131.401 1156.71 125.575 1158.57 125.628C1174.8 126.085 1185.57 73.0081 1205.69 72.5171C1225.81 72.026 1246.22 122.905 1263.52 98.8912C1280.83 74.8771 1301.52 215.588 1317.73 215.356C1333.95 215.124 1335.99 188.625 1348.24 188.625C1360.48 188.625 1359.75 221.482 1396.84 222.013C1433.93 222.544 1589 531 1589 531" fill="url(#paint0_linear)"/>
<path d="M-3565 518.824C-3565 518.824 -3527.48 311.918 -3507.47 311.75C-3487.47 311.583 -3473.18 427.121 -3456.86 429.241C-3440.54 431.361 -3452.78 386.842 -3420.13 386.842C-3387.49 386.842 -3424.21 334.903 -3379.33 334.903C-3334.44 334.903 -3319.87 311.762 -3319.87 311.762C-3319.87 311.762 -3299.75 233.144 -3289.55 233.144C-3279.35 233.144 -3265.06 323.243 -3236.5 323.243C-3207.93 323.243 -3181.41 209.824 -3156.92 209.824C-3132.44 209.824 -3115.94 280.743 -3096.65 280.793C-3077.35 280.843 -3053.33 260.766 -3036.78 260.735C-3020.22 260.704 -2997.46 277.104 -2981.45 277.663C-2965.44 278.222 -2936.85 264.278 -2921.4 264.611C-2905.96 264.944 -2887.59 334.903 -2875.35 334.903C-2863.11 334.903 -2862.49 270.548 -2839.34 270.396C-2816.18 270.243 -2774.6 290.06 -2757.65 290.221C-2740.69 290.383 -2617.36 302.528 -2602.51 302.285C-2587.66 302.043 -2582.23 334.237 -2567.25 334.903C-2552.28 335.568 -2544.03 308.197 -2521.97 307.77C-2499.92 307.343 -2464.18 315.008 -2446.34 315.415C-2428.51 315.823 -2407.03 233.09 -2387.7 233.144C-2368.37 233.198 -2374.11 281.491 -2358.46 282.227C-2342.81 282.963 -2314.27 301.254 -2308.14 289.989C-2302 278.723 -2294.37 201.973 -2277.79 202.188C-2261.2 202.404 -2203.1 255.427 -2188.28 255.415C-2173.46 255.404 -2125.7 226.985 -2108.77 227.944C-2091.85 228.904 -2048.67 269.418 -2024.35 269.301C-2000.03 269.183 -1997.99 201.344 -1975.54 201.344C-1953.1 201.344 -1956.04 245.659 -1948.45 250.532C-1940.86 255.404 -1885.05 266.538 -1866.03 266.801C-1847 267.063 -1822.89 234.941 -1797.2 234.572C-1771.51 234.204 -1728.98 245.019 -1711.47 244.911C-1693.97 244.804 -1685.79 214.869 -1673.45 211.307C-1661.11 207.744 -1604.37 212.789 -1595.1 211.307C-1585.83 209.824 -1500.74 134.18 -1474.93 133.313C-1461.89 132.874 -1437.14 111.121 -1414.15 110.628C-1391.65 110.146 -1370.83 130.923 -1364.33 130.725C-1351.19 130.325 -1284.1 186.328 -1264.59 186.946C-1245.09 187.565 -1203.54 125.185 -1182.49 125.105C-1161.43 125.025 -1131.54 181.506 -1097.79 198.564C-1064.04 215.623 -1005.22 227.352 -973.394 230.793C-941.57 234.234 -887.215 222.899 -874.355 222.721C-861.496 222.544 -827.068 280.516 -809.596 281.21C-792.124 281.903 -721.505 196.181 -706.825 196.113C-692.145 196.044 -647.257 220.424 -631.337 220.134C-615.417 219.844 -477.317 159.837 -447.005 159.921C-416.694 160.005 -408.32 98.5257 -392.103 98.5257C-375.886 98.5257 -377.554 158.508 -347.135 158.196C-342.699 158.151 -306.147 139.689 -246.892 140.779C-231.605 141.061 -214.807 158.37 -196.66 158.782C-165.499 159.488 -130.36 139.072 -92.0598 139.915C-67.4617 140.457 -41.5598 204.686 -14.5708 205.395C13.1447 206.123 42.0066 185.504 71.7803 185.954C106.989 186.486 143.473 165.754 180.843 166.166C196.719 166.341 212.754 187.731 228.92 187.935C258.169 188.304 287.843 146.23 317.769 146.516C365.068 146.969 412.992 169.033 460.846 170.215C494.77 171.053 528.657 129.488 562.262 130.314C604.589 131.355 605.66 154.199 646.593 156.287C670.305 157.497 693.959 137.521 717.416 138.75C735.458 139.696 753.384 161.937 771.132 163.059C783.699 163.853 796.178 122.233 808.544 122.999C827.95 124.2 847.081 83.2604 865.851 84.927C887.331 86.8341 908.338 112.79 928.744 115.984C948.323 119.048 967.349 79.9367 985.708 83.3611C1002.72 86.5339 1019.16 47.9955 1034.93 52.3424C1068.26 61.5271 1076.04 86.8637 1089.7 97.8129C1131.61 131.401 1156.71 125.575 1158.57 125.628C1174.8 126.085 1185.57 73.0081 1205.69 72.5171C1225.81 72.026 1246.22 122.905 1263.52 98.8912C1280.83 74.8771 1301.52 215.588 1317.73 215.356C1333.95 215.124 1335.99 188.625 1348.24 188.625C1360.48 188.625 1359.75 221.482 1396.84 222.013C1433.93 222.544 1589 531 1589 531" stroke="#FD9E70" stroke-width="3"/>
</g>
<g opacity="0.2">
<path fill-rule="evenodd" clip-rule="evenodd" d="M-3560 502C-3560 502 -3527.55 478.916 -3511.95 478.985C-3496.35 479.055 -3482.3 481.518 -3466.88 481.729C-3451.46 481.94 -3455.33 464.128 -3439.11 463.897C-3422.9 463.666 -3378.27 444.892 -3356.34 444.502C-3334.41 444.113 -3319.44 461.902 -3296.7 462.303C-3273.95 462.705 -3225.85 436.704 -3205.01 437.201C-3184.18 437.698 -3166.96 451.911 -3148.61 454.362C-3130.27 456.812 -3124.01 489.987 -3101.05 490.292C-3078.08 490.596 -3049.06 437.71 -3018.68 437.704C-2988.3 437.698 -2979.08 414.621 -2963.29 415.58C-2947.5 416.539 -2932.59 444.299 -2914.54 444.365C-2896.49 444.431 -2857.5 360.927 -2836.19 360.841C-2814.88 360.755 -2810.79 390.571 -2788.12 391.091C-2765.44 391.612 -2711.69 348.556 -2694.93 348.404C-2678.17 348.252 -2642.39 357.299 -2619.48 357.584C-2596.56 357.87 -2531.43 335.058 -2510.95 335.403C-2490.46 335.749 -2382.95 355.558 -2337.11 355.308C-2291.27 355.057 -2244.17 337.645 -2201.37 336.341C-2158.58 335.038 -2117.31 348.612 -2117.31 348.612C-2117.31 348.612 -2049.72 357.049 -2029.33 356.979C-2008.94 356.908 -2015.64 296.811 -2000.05 296.564C-1984.46 296.316 -1971 306.548 -1955.28 307.202C-1939.57 307.857 -1911.74 264.009 -1895.05 264.774C-1878.36 265.538 -1875.84 289.122 -1857.71 289.834C-1839.59 290.545 -1845.42 268.582 -1825.16 268.984C-1804.91 269.385 -1723.03 285.453 -1713.26 288.201C-1703.49 290.949 -1680.03 292.084 -1666.97 292.276C-1653.92 292.468 -1625.64 253.146 -1605.1 253.571C-1584.55 253.997 -1515.98 303.587 -1509.25 306.222C-1502.53 308.858 -1479.8 308.846 -1462.81 309.313C-1445.81 309.781 -1441.91 324.912 -1429.58 325.04C-1417.24 325.169 -1423.74 304.803 -1408.09 296.78C-1392.43 288.756 -1363.32 289.542 -1344.63 281.506C-1325.94 273.47 -1327.76 254.469 -1301.09 255.195C-1274.42 255.92 -1242.52 236.06 -1228.89 236.372C-1215.25 236.685 -1205.05 275.156 -1194.85 275.156C-1184.65 275.156 -1147.92 247.264 -1129.56 242.455C-1111.19 237.647 -1033.09 226.939 -1013.99 227.484C-994.894 228.029 -958.167 262.653 -941.694 262.597C-925.221 262.54 -906.078 246.15 -876.647 233.532C-847.216 220.914 -834.447 210.81 -815.186 208.357C-795.924 205.904 -766.273 216.838 -747.961 217.143C-729.65 217.449 -723.529 208.793 -708.09 208.388C-692.651 207.982 -646.79 223.48 -630.07 223.831C-613.35 224.182 -601.108 155.762 -578.665 155.762C-556.221 155.762 -525.405 168.709 -510.208 169.449C-495.011 170.189 -473.206 157.547 -456.564 157.135C-439.922 156.724 -425.776 133.273 -404.284 133.457C-382.792 133.641 -351.13 150.865 -321.053 151.871C-290.977 152.876 -282.849 183.671 -240.566 182.432C-198.283 181.194 -199.624 151.828 -144.017 151.871C-88.4102 151.914 -105.018 184.758 -46.7539 182.432C-23.3186 181.497 1.34131 165.063 27.0442 163.922C64.8511 162.244 104.914 121.981 146.654 120.106C173.37 118.905 200.772 137.02 228.709 135.974C255.857 134.957 283.509 153.186 311.527 152.191C347.678 150.908 384.438 130.296 421.507 128.849C441.785 128.057 462.156 146.519 482.57 145.764C516.441 144.512 550.433 170.12 584.321 168.747C597.797 168.202 611.257 162.363 624.687 152.449C649.336 134.254 673.884 106.888 698.242 105.527C722.139 104.192 745.854 122.261 769.305 121.247C805.478 119.683 841.021 99.0022 875.634 97.6697C922.036 95.8834 966.766 143.075 1009.1 142.594C1049.09 142.14 1086.94 102.99 1122.03 102.19C1159.31 101.34 1193.48 122.07 1223.81 124.772C1259.78 127.977 1290.34 72.0402 1314.28 73.0125C1349.66 74.4497 1370.56 131.85 1373.04 131.85C1397.21 131.85 1562.32 464.217 1568.09 475.138C1573.87 486.059 1589 496.918 1589 496.918" fill="url(#paint1_linear)"/>
<path d="M-3560 502C-3560 502 -3527.55 478.916 -3511.95 478.985C-3496.35 479.055 -3482.3 481.518 -3466.88 481.729C-3451.46 481.94 -3455.33 464.128 -3439.11 463.897C-3422.9 463.666 -3378.27 444.892 -3356.34 444.502C-3334.41 444.113 -3319.44 461.902 -3296.7 462.303C-3273.95 462.705 -3225.85 436.704 -3205.01 437.201C-3184.18 437.698 -3166.96 451.911 -3148.61 454.362C-3130.27 456.813 -3124.01 489.987 -3101.05 490.292C-3078.08 490.596 -3049.06 437.71 -3018.68 437.704C-2988.3 437.698 -2979.08 414.621 -2963.29 415.58C-2947.5 416.539 -2932.59 444.299 -2914.54 444.365C-2896.49 444.431 -2857.5 360.927 -2836.19 360.841C-2814.88 360.755 -2810.79 390.571 -2788.12 391.091C-2765.44 391.612 -2711.69 348.556 -2694.93 348.404C-2678.17 348.252 -2642.39 357.299 -2619.48 357.584C-2596.56 357.87 -2531.43 335.058 -2510.95 335.403C-2490.46 335.749 -2382.95 355.558 -2337.11 355.308C-2291.27 355.057 -2244.17 337.645 -2201.37 336.341C-2158.58 335.038 -2117.31 348.612 -2117.31 348.612C-2117.31 348.612 -2049.72 357.049 -2029.33 356.979C-2008.94 356.908 -2015.64 296.811 -2000.05 296.564C-1984.46 296.316 -1971 306.548 -1955.28 307.202C-1939.57 307.857 -1911.74 264.009 -1895.05 264.774C-1878.36 265.538 -1875.84 289.122 -1857.71 289.834C-1839.59 290.545 -1845.42 268.582 -1825.16 268.984C-1804.91 269.385 -1723.03 285.453 -1713.26 288.201C-1703.49 290.949 -1680.03 292.084 -1666.97 292.276C-1653.92 292.468 -1625.64 253.146 -1605.1 253.571C-1584.55 253.997 -1515.98 303.587 -1509.25 306.222C-1502.53 308.858 -1479.8 308.846 -1462.81 309.313C-1445.81 309.781 -1441.91 324.912 -1429.58 325.04C-1417.24 325.169 -1423.74 304.803 -1408.09 296.78C-1392.43 288.756 -1363.32 289.542 -1344.63 281.506C-1325.93 273.47 -1327.76 254.469 -1301.09 255.195C-1274.42 255.92 -1242.52 236.06 -1228.89 236.372C-1215.25 236.685 -1205.05 275.156 -1194.85 275.156C-1184.64 275.156 -1147.92 247.264 -1129.56 242.455C-1111.19 237.647 -1033.09 226.939 -1013.99 227.484C-994.894 228.029 -958.168 262.653 -941.694 262.597C-925.221 262.54 -906.078 246.15 -876.647 233.532C-847.216 220.914 -834.447 210.81 -815.186 208.357C-795.924 205.904 -766.273 216.838 -747.961 217.143C-729.65 217.449 -723.529 208.793 -708.09 208.388C-692.651 207.982 -646.79 223.48 -630.07 223.831C-613.35 224.182 -601.108 155.762 -578.665 155.762C-556.221 155.762 -525.405 168.709 -510.208 169.449C-495.011 170.189 -473.206 157.547 -456.564 157.135C-439.922 156.724 -425.776 133.273 -404.284 133.457C-382.792 133.641 -351.13 150.865 -321.053 151.871C-290.977 152.876 -282.849 183.671 -240.566 182.432C-198.283 181.194 -199.624 151.828 -144.017 151.871C-88.4102 151.914 -105.018 184.758 -46.7539 182.432C-23.3186 181.497 1.3413 165.063 27.0442 163.922C64.851 162.244 104.914 121.981 146.654 120.106C173.37 118.905 200.772 137.02 228.709 135.974C255.857 134.957 283.509 153.186 311.527 152.191C347.678 150.908 384.437 130.296 421.507 128.849C441.785 128.057 462.156 146.519 482.57 145.764C516.441 144.512 550.433 170.12 584.321 168.747C597.797 168.202 611.257 162.363 624.687 152.449C649.336 134.254 673.884 106.888 698.242 105.527C722.139 104.192 745.854 122.261 769.305 121.247C805.478 119.683 841.021 99.0022 875.634 97.6697C922.036 95.8834 966.766 143.075 1009.1 142.594C1049.09 142.14 1086.94 102.99 1122.03 102.19C1159.31 101.34 1193.48 122.07 1223.81 124.772C1259.78 127.977 1290.34 72.0402 1314.28 73.0125C1349.66 74.4497 1370.56 131.85 1373.04 131.85C1397.21 131.85 1562.32 464.217 1568.09 475.138C1573.87 486.059 1589 496.918 1589 496.918" stroke="white" stroke-width="3"/>
</g>
</g>
<defs>
<linearGradient id="paint0_linear" x1="1578.79" y1="530.851" x2="1578.79" y2="51.8965" gradientUnits="userSpaceOnUse">
<stop stop-color="#FD9E70"/>
<stop offset="1" stop-color="#FD9E70" stop-opacity="0.01"/>
</linearGradient>
<linearGradient id="paint1_linear" x1="-1552.03" y1="287.5" x2="-1552.03" y2="502" gradientUnits="userSpaceOnUse">
<stop stop-color="#04A5F4" stop-opacity="0.3"/>
<stop offset="1" stop-color="#1842BD" stop-opacity="0.01"/>
</linearGradient>
</defs>
</svg>
