<svg width="20" height="20" viewBox="0 0 20 20" fill="none" xmlns="http://www.w3.org/2000/svg">
<path fill-rule="evenodd" clip-rule="evenodd" d="M0 10C0 4.47715 4.47715 0 10 0C15.5228 0 20 4.47715 20 10C20 15.5228 15.5228 20 10 20C4.47715 20 0 15.5228 0 10ZM11 9V15H9V9H11ZM10 7C10.2716 7 10.5062 6.90417 10.7037 6.7125C10.9012 6.5125 11 6.275 11 6C11 5.725 10.9012 5.48958 10.7037 5.29375C10.5062 5.09792 10.2716 5 10 5C9.72839 5 9.49383 5.09792 9.2963 5.29375C9.09876 5.48958 9 5.725 9 6C9 6.275 9.09876 6.51042 9.2963 6.70625C9.49383 6.90208 9.72839 7 10 7Z" fill="white"/>
</svg>
