<svg width="47" height="47" viewBox="0 0 47 47" fill="none" xmlns="http://www.w3.org/2000/svg">
<path fill-rule="evenodd" clip-rule="evenodd" d="M23.2052 47C36.3467 47 47 36.4787 47 23.5C47 10.5213 36.3467 0 23.2052 0C16.158 0 9.82627 3.02563 5.46927 7.83333H21.3571C28.8291 7.83333 34.8863 13.777 34.8863 21.1088C34.8863 21.1653 34.8859 21.2218 34.8852 21.2783C34.7898 28.5364 28.7162 34.3445 21.3193 34.2509L20.5339 34.2409L10.1477 34.1716L7.45268 41.1134C11.649 44.7767 17.1642 47 23.2052 47ZM20.5946 18.2778H0C0.364029 16.6934 0.890155 15.1698 1.56025 13.7249H21.3571C25.5131 13.7249 28.8822 17.0308 28.8815 21.2023C28.8289 25.2069 25.4779 28.4115 21.3967 28.3598L20.593 28.3497L8.10464 28.2662L6.02071 28.2523L3.02771 35.9616C1.89203 34.1718 0.993718 32.2202 0.376359 30.1496L2.5571 24.3489H20.5946C22.2753 24.3489 23.6378 22.9898 23.6378 21.3133C23.6378 19.6368 22.2753 18.2778 20.5946 18.2778Z" fill="#0277FF"/>
</svg>
