<svg width="22" height="22" viewBox="0 0 22 22" fill="none" xmlns="http://www.w3.org/2000/svg">
<path fill-rule="evenodd" clip-rule="evenodd" d="M3.66671 2.75H18.3334C19.8429 2.75 21.0751 3.97712 21.0833 5.48475C21.0835 5.4934 21.0835 5.50205 21.0834 5.51069V16.5C21.0834 18.0146 19.848 19.25 18.3334 19.25H3.66671C2.15212 19.25 0.916712 18.0146 0.916712 16.5V5.51176C0.916583 5.50233 0.916599 5.49289 0.916761 5.48344C0.925725 3.97641 2.15764 2.75 3.66671 2.75ZM2.75005 7.26061V16.5C2.75005 17.0021 3.16464 17.4167 3.66671 17.4167H18.3334C18.8355 17.4167 19.25 17.0021 19.25 16.5V7.2606L11.5257 12.6676C11.2101 12.8886 10.79 12.8886 10.4744 12.6676L2.75005 7.26061ZM2.84774 5.09112L11 10.7977L19.1523 5.09112C19.0007 4.79134 18.689 4.58333 18.3334 4.58333H3.66671C3.31108 4.58333 2.99934 4.79135 2.84774 5.09112Z" fill="black"/>
<mask id="mask0" mask-type="alpha" maskUnits="userSpaceOnUse" x="0" y="2" width="22" height="18">
<path fill-rule="evenodd" clip-rule="evenodd" d="M3.66671 2.75H18.3334C19.8429 2.75 21.0751 3.97712 21.0833 5.48475C21.0835 5.4934 21.0835 5.50205 21.0834 5.51069V16.5C21.0834 18.0146 19.848 19.25 18.3334 19.25H3.66671C2.15212 19.25 0.916712 18.0146 0.916712 16.5V5.51176C0.916583 5.50233 0.916599 5.49289 0.916761 5.48344C0.925725 3.97641 2.15764 2.75 3.66671 2.75ZM2.75005 7.26061V16.5C2.75005 17.0021 3.16464 17.4167 3.66671 17.4167H18.3334C18.8355 17.4167 19.25 17.0021 19.25 16.5V7.2606L11.5257 12.6676C11.2101 12.8886 10.79 12.8886 10.4744 12.6676L2.75005 7.26061ZM2.84774 5.09112L11 10.7977L19.1523 5.09112C19.0007 4.79134 18.689 4.58333 18.3334 4.58333H3.66671C3.31108 4.58333 2.99934 4.79135 2.84774 5.09112Z" fill="white"/>
</mask>
<g mask="url(#mask0)">
<rect width="22" height="22" fill="#1569FF"/>
</g>
</svg>
