<svg width="80" height="80" viewBox="0 0 80 80" fill="none" xmlns="http://www.w3.org/2000/svg">
<path d="M40 76.6667C57.3836 76.6667 71.9303 64.5671 75.7031 48.3333C71.9303 32.0996 57.3836 20 40 20C22.6164 20 8.06966 32.0996 4.29688 48.3333C8.06966 64.5671 22.6164 76.6667 40 76.6667Z" fill="#CCE4FF"/>
<path d="M23.3334 50H56.6667V56.6667H23.3334V50Z" fill="#007AFF"/>
<path fill-rule="evenodd" clip-rule="evenodd" d="M0 40C0 17.9435 17.9435 0 40 0C62.0565 0 80 17.9435 80 40C80 62.0565 62.0565 80 40 80C17.9435 80 0 62.0565 0 40ZM6.66667 40C6.66667 58.3797 21.6203 73.3333 40 73.3333C58.3797 73.3333 73.3333 58.3797 73.3333 40C73.3333 21.6203 58.3797 6.66667 40 6.66667C21.6203 6.66667 6.66667 21.6203 6.66667 40Z" fill="#007AFF"/>
<path d="M23.3334 30H30V36.6667H23.3334V30Z" fill="#007AFF"/>
<path d="M50 30H56.6667V36.6667H50V30Z" fill="#007AFF"/>
</svg>
