<svg width="22" height="22" viewBox="0 0 22 22" fill="none" xmlns="http://www.w3.org/2000/svg">
<path fill-rule="evenodd" clip-rule="evenodd" d="M0 11C0 17.0751 4.92487 22 11 22C17.0751 22 22 17.0751 22 11C22 4.92487 17.0751 0 11 0C4.92487 0 0 4.92487 0 11ZM20 11C20 15.9706 15.9706 20 11 20C6.02944 20 2 15.9706 2 11C2 6.02944 6.02944 2 11 2C15.9706 2 20 6.02944 20 11ZM12 15V11C12 10.4477 11.5523 10 11 10C10.4477 10 10 10.4477 10 11V15C10 15.5523 10.4477 16 11 16C11.5523 16 12 15.5523 12 15ZM11.7071 7.29289C12.0976 7.68342 12.0976 8.31658 11.7071 8.70711C11.3166 9.09763 10.6834 9.09763 10.2929 8.70711C9.90237 8.31658 9.90237 7.68342 10.2929 7.29289C10.6834 6.90237 11.3166 6.90237 11.7071 7.29289Z" fill="#FF455C"/>
</svg>
