<svg width="18" height="14" viewBox="0 0 18 14" fill="none" xmlns="http://www.w3.org/2000/svg">
<path fill-rule="evenodd" clip-rule="evenodd" d="M1.17391 0.736842C2.68043 2.53842 5.37887 4.23831 9 4.42105C8.80044 3.63853 8.78087 1.51568 10.3602 0.632947C11.0661 0.238737 11.7344 0 12.5217 0C13.5117 0 14.3233 0.319789 15.1873 1.09642C15.8909 0.999894 17.2041 0.468631 17.5156 0.260105C17.3129 0.992526 16.5013 1.93347 15.9143 2.15674C16.4528 2.15453 17.6377 1.85242 18 1.67337C17.4968 2.43453 16.6179 3.164 16.1366 3.46684C16.6938 8.16052 12.2502 13.9941 5.86957 14C4.04687 14.0015 2.06687 13.6375 0 12.5263C2.0387 12.751 4.22374 12.1292 5.47826 11.0526C3.89661 11.0187 2.29383 10.0152 1.56522 8.47368C2.358 8.70579 3.08896 8.82368 3.52174 8.47368C2.78374 8.39558 0.391304 7.1621 0.391304 4.77326C0.941478 5.20137 1.7327 5.64421 2.34783 5.52631C1.34061 4.96484 -0.122087 2.82726 1.17391 0.736842Z" fill="#4A4A4A"/>
</svg>
