<svg width="24" height="24" viewBox="0 0 24 24" fill="none" xmlns="http://www.w3.org/2000/svg">
<path fill-rule="evenodd" clip-rule="evenodd" d="M22 8V3.00098V3L22 2.99077C21.9988 2.85854 21.9719 2.73244 21.9241 2.61722C21.8753 2.49927 21.803 2.38877 21.7071 2.29289C21.6112 2.19702 21.5007 2.12468 21.3828 2.07588C21.2649 2.02699 21.1356 2 21 2H16C15.4477 2 15 2.44772 15 3C15 3.55228 15.4477 4 16 4H18.5858L3.29289 19.2929C2.90237 19.6834 2.90237 20.3166 3.29289 20.7071C3.68342 21.0976 4.31658 21.0976 4.70711 20.7071L20 5.41421V8C20 8.55228 20.4477 9 21 9C21.5523 9 22 8.55228 22 8ZM15 21C15 20.4477 15.4477 20 16 20L21.3828 21.9241C21.2634 21.9735 21.1364 21.9988 21.0092 22L20.999 22H16C15.4477 22 15 21.5523 15 21ZM16 20L22 20.999V16C22 15.4477 21.5523 15 21 15C20.4477 15 20 15.4477 20 16V18.5858L15.7071 14.2929C15.3166 13.9024 14.6834 13.9024 14.2929 14.2929C13.9024 14.6834 13.9024 15.3166 14.2929 15.7071L18.5858 20H16ZM8.29289 9.70711L3.29289 4.70711C2.90237 4.31658 2.90237 3.68342 3.29289 3.29289C3.68342 2.90237 4.31658 2.90237 4.70711 3.29289L9.70711 8.29289C10.0976 8.68342 10.0976 9.31658 9.70711 9.70711C9.31658 10.0976 8.68342 10.0976 8.29289 9.70711Z" fill="black"/>
<mask id="mask0" mask-type="alpha" maskUnits="userSpaceOnUse" x="3" y="2" width="19" height="20">
<path fill-rule="evenodd" clip-rule="evenodd" d="M22 8V3.00098V3L22 2.99077C21.9988 2.85854 21.9719 2.73244 21.9241 2.61722C21.8753 2.49927 21.803 2.38877 21.7071 2.29289C21.6112 2.19702 21.5007 2.12468 21.3828 2.07588C21.2649 2.02699 21.1356 2 21 2H16C15.4477 2 15 2.44772 15 3C15 3.55228 15.4477 4 16 4H18.5858L3.29289 19.2929C2.90237 19.6834 2.90237 20.3166 3.29289 20.7071C3.68342 21.0976 4.31658 21.0976 4.70711 20.7071L20 5.41421V8C20 8.55228 20.4477 9 21 9C21.5523 9 22 8.55228 22 8ZM15 21C15 20.4477 15.4477 20 16 20L21.3828 21.9241C21.2634 21.9735 21.1364 21.9988 21.0092 22L20.999 22H16C15.4477 22 15 21.5523 15 21ZM16 20L22 20.999V16C22 15.4477 21.5523 15 21 15C20.4477 15 20 15.4477 20 16V18.5858L15.7071 14.2929C15.3166 13.9024 14.6834 13.9024 14.2929 14.2929C13.9024 14.6834 13.9024 15.3166 14.2929 15.7071L18.5858 20H16ZM8.29289 9.70711L3.29289 4.70711C2.90237 4.31658 2.90237 3.68342 3.29289 3.29289C3.68342 2.90237 4.31658 2.90237 4.70711 3.29289L9.70711 8.29289C10.0976 8.68342 10.0976 9.31658 9.70711 9.70711C9.31658 10.0976 8.68342 10.0976 8.29289 9.70711Z" fill="white"/>
</mask>
<g mask="url(#mask0)">
<rect width="24" height="24" fill="black"/>
</g>
</svg>
