<svg width="25" height="26" viewBox="0 0 25 26" fill="none" xmlns="http://www.w3.org/2000/svg">
<rect x="1" y="6" width="22" height="18.3077" rx="1" fill="#F6F7FA" stroke="black" stroke-width="2"/>
<path fill-rule="evenodd" clip-rule="evenodd" d="M7.70264 5.61531H20.8207L20.0501 2.7395C19.9021 2.18709 19.3218 1.87111 18.7774 2.04651L7.70264 5.61531Z" fill="#F6F7FA"/>
<path d="M7.70264 5.61531L7.39592 4.66351L7.70264 6.61531V5.61531ZM20.8207 5.61531V6.61531H22.1239L21.7866 5.35649L20.8207 5.61531ZM20.0501 2.7395L21.016 2.48068V2.48068L20.0501 2.7395ZM18.7774 2.04651L18.4707 1.09471V1.09471L18.7774 2.04651ZM7.70264 6.61531H20.8207V4.61531H7.70264V6.61531ZM19.0842 2.99832L19.8547 5.87413L21.7866 5.35649L21.016 2.48068L19.0842 2.99832ZM19.0842 2.99832L19.0842 2.99832L21.016 2.48068C20.72 1.37587 19.5594 0.743902 18.4707 1.09471L19.0842 2.99832ZM8.00935 6.56712L19.0842 2.99832L18.4707 1.09471L7.39592 4.66351L8.00935 6.56712Z" fill="black"/>
<path d="M16.6154 14.0769C16.6154 12.9723 17.5108 12.0769 18.6154 12.0769H22.0769C22.6292 12.0769 23.0769 12.5246 23.0769 13.0769V16.6154C23.0769 17.1677 22.6292 17.6154 22.0769 17.6154H18.6154C17.5108 17.6154 16.6154 16.7199 16.6154 15.6154V14.0769Z" fill="#F6F7FA" stroke="black" stroke-width="2"/>
</svg>
