<svg width="310" height="218" viewBox="0 0 310 218" fill="none" xmlns="http://www.w3.org/2000/svg">
<path d="M145.964 119.287L146.122 142.528" stroke="#7DB7FD" stroke-width="2.5"/>
<path opacity="0.2" d="M168.873 79.6908L146.099 92.9013L123.324 79.6908L146.099 66.3441L168.873 79.6908Z" fill="#FBFCFE" stroke="#0277FF" stroke-width="2.5"/>
<path d="M168.873 79.6908L146.099 92.9013L123.324 79.6908L146.099 66.3441L168.873 79.6908Z" stroke="#0277FF" stroke-width="2.5"/>
<path d="M144.853 95.0687L144.989 121.459L122.24 108.127L122.104 81.8732L144.853 95.0687Z" stroke="#0277FF" stroke-width="2.5"/>
<path d="M170.105 108.131L147.489 121.465L147.353 95.0644L170.105 81.8667V108.131Z" stroke="#0277FF" stroke-width="2.5"/>
<path d="M165.648 53.5828L145.415 42.0986" stroke="#0277FF" stroke-width="2.5"/>
<path d="M206.403 35.9209L186.327 47.6778" stroke="#7DB7FD" stroke-width="2.5"/>
<path d="M189.639 44.6008L171.328 55.2922L153.017 44.6008L171.328 34.0184L189.639 44.6008Z" stroke="#0277FF" stroke-width="2.5"/>
<path opacity="0.2" d="M170.078 57.4573V78.4907L151.779 67.915V46.7726L170.078 57.4573Z" fill="#FBFCFE" stroke="#0277FF" stroke-width="2.5"/>
<path d="M170.078 57.4573V78.4907L151.779 67.915V46.7726L170.078 57.4573Z" stroke="#0277FF" stroke-width="2.5"/>
<path d="M190.877 67.7948L172.578 78.4795V57.4573L190.877 46.7726V67.7948Z" stroke="#0277FF" stroke-width="2.5"/>
<path d="M175.741 54.0447L155.665 65.8016" stroke="#0277FF" stroke-width="2.5"/>
<path d="M125.754 53.5828L145.988 42.0986" stroke="#0277FF" stroke-width="2.5"/>
<path d="M86.0972 35.9209L106.173 47.6778" stroke="#7DB7FD" stroke-width="2.5"/>
<path d="M102.861 44.6008L121.172 55.2922L139.483 44.6008L121.172 34.0184L102.861 44.6008Z" stroke="#0277FF" stroke-width="2.5"/>
<path d="M122.422 57.4573V78.4907L140.721 67.915V46.7726L122.422 57.4573Z" stroke="#0277FF" stroke-width="2.5"/>
<path d="M101.623 67.7948L119.922 78.4795V57.4573L101.623 46.7726V67.7948Z" stroke="#0277FF" stroke-width="2.5"/>
<path d="M116.344 54.0447L136.42 65.8016" stroke="#0277FF" stroke-width="2.5"/>
<mask id="path-19-inside-1" fill="white">
<path fill-rule="evenodd" clip-rule="evenodd" d="M26.3011 0C23.5802 0 21.3745 2.20573 21.3745 4.92662V158.105H268.626V4.9266C268.626 2.20571 266.42 0 263.699 0H26.3011Z"/>
</mask>
<path d="M21.3745 158.105H16.3745V163.105H21.3745V158.105ZM268.626 158.105V163.105H273.626V158.105H268.626ZM26.3745 4.92662C26.3745 4.92512 26.3746 4.92885 26.3731 4.93611C26.3717 4.94308 26.3694 4.9502 26.3667 4.95671C26.3614 4.96911 26.356 4.9755 26.353 4.9785C26.35 4.98151 26.3436 4.98693 26.3312 4.99218C26.3247 4.99493 26.3176 4.99716 26.3106 4.99858C26.3034 5.00007 26.2996 5 26.3011 5V-5C20.8188 -5 16.3745 -0.555674 16.3745 4.92662H26.3745ZM26.3745 158.105V4.92662H16.3745V158.105H26.3745ZM21.3745 163.105H268.626V153.105H21.3745V163.105ZM263.626 4.9266V158.105H273.626V4.9266H263.626ZM263.699 5C263.701 5 263.697 5.00007 263.69 4.99858C263.683 4.99716 263.676 4.99494 263.669 4.99218C263.657 4.98694 263.65 4.98151 263.647 4.9785C263.644 4.9755 263.639 4.96911 263.634 4.95671C263.631 4.95019 263.629 4.94307 263.627 4.9361C263.626 4.92884 263.626 4.9251 263.626 4.9266H273.626C273.626 -0.555717 269.182 -5 263.699 -5V5ZM26.3011 5H263.699V-5H26.3011V5Z" fill="#0277FF" mask="url(#path-19-inside-1)"/>
<mask id="path-21-outside-2" maskUnits="userSpaceOnUse" x="0" y="153.391" width="290" height="22" fill="black">
<rect fill="white" y="153.391" width="290" height="22"/>
<path fill-rule="evenodd" clip-rule="evenodd" d="M280.073 170.391C282.794 170.391 285 168.185 285 165.464V158.981L5 158.981V165.464C5 168.185 7.20572 170.391 9.92661 170.391L280.073 170.391Z"/>
</mask>
<path d="M285 158.981H290V153.981H285V158.981ZM5 158.981V153.981H0V158.981H5ZM280 165.464C280 165.466 280 165.462 280.001 165.455C280.003 165.448 280.005 165.441 280.008 165.434C280.013 165.422 280.018 165.415 280.021 165.412C280.025 165.409 280.031 165.404 280.043 165.399C280.05 165.396 280.057 165.394 280.064 165.392C280.071 165.391 280.075 165.391 280.073 165.391V175.391C285.556 175.391 290 170.947 290 165.464H280ZM280 158.981V165.464H290V158.981H280ZM285 153.981L5 153.981V163.981L285 163.981V153.981ZM10 165.464V158.981H0V165.464H10ZM9.92661 165.391C9.92511 165.391 9.92883 165.391 9.9361 165.392C9.94305 165.394 9.9502 165.396 9.9567 165.399C9.96912 165.404 9.97549 165.409 9.97852 165.412C9.98151 165.415 9.98694 165.422 9.99219 165.434C9.99493 165.441 9.99716 165.448 9.9986 165.455C10.0001 165.462 10 165.466 10 165.464H0C0 170.947 4.44431 175.391 9.92661 175.391V165.391ZM280.073 165.391L9.92661 165.391V175.391L280.073 175.391V165.391Z" fill="#0277FF" mask="url(#path-21-outside-2)"/>
<rect x="227.5" y="85.1897" width="80" height="130.31" rx="2.5" fill="#F7F8FB" stroke="#0277FF" stroke-width="5"/>
<path d="M268.464 156.874L268.622 180.115" stroke="#7DB7FD" stroke-width="2.5"/>
<path opacity="0.2" d="M291.373 117.277L268.599 130.488L245.824 117.277L268.599 103.931L291.373 117.277Z" fill="#FBFCFE" stroke="#0277FF" stroke-width="2.5"/>
<path d="M291.373 117.277L268.599 130.488L245.824 117.277L268.599 103.931L291.373 117.277Z" stroke="#0277FF" stroke-width="2.5"/>
<path d="M267.353 132.655L267.489 159.045L244.74 145.714L244.604 119.46L267.353 132.655Z" stroke="#0277FF" stroke-width="2.5"/>
<path d="M292.605 145.718L269.989 159.052L269.853 132.651L292.605 119.453V145.718Z" stroke="#0277FF" stroke-width="2.5"/>
<path fill-rule="evenodd" clip-rule="evenodd" d="M267.5 202.966C271.642 202.966 275 199.6 275 195.448C275 191.297 271.642 187.931 267.5 187.931C263.358 187.931 260 191.297 260 195.448C260 199.6 263.358 202.966 267.5 202.966Z" stroke="#0277FF" stroke-width="2.5"/>
<path fill-rule="evenodd" clip-rule="evenodd" d="M42.5 22.5518C45.2614 22.5518 47.5 20.3081 47.5 17.5403C47.5 14.7725 45.2614 12.5288 42.5 12.5288C39.7386 12.5288 37.5 14.7725 37.5 17.5403C37.5 20.3081 39.7386 22.5518 42.5 22.5518Z" stroke="#7DB7FD" stroke-width="2.5"/>
<path fill-rule="evenodd" clip-rule="evenodd" d="M60 22.5518C62.7614 22.5518 65 20.3081 65 17.5403C65 14.7725 62.7614 12.5288 60 12.5288C57.2386 12.5288 55 14.7725 55 17.5403C55 20.3081 57.2386 22.5518 60 22.5518Z" stroke="#7DB7FD" stroke-width="2.5"/>
<path fill-rule="evenodd" clip-rule="evenodd" d="M77.5 22.5518C80.2614 22.5518 82.5 20.3081 82.5 17.5403C82.5 14.7725 80.2614 12.5288 77.5 12.5288C74.7386 12.5288 72.5 14.7725 72.5 17.5403C72.5 20.3081 74.7386 22.5518 77.5 22.5518Z" stroke="#7DB7FD" stroke-width="2.5"/>
</svg>
