<svg width="250" height="266" viewBox="0 0 250 266" fill="none" xmlns="http://www.w3.org/2000/svg">
<path d="M121.461 220.743L121.631 245.869" stroke="#7DB7FD" stroke-width="2.7"/>
<path opacity="0.2" d="M146.236 177.936L121.607 192.22L96.9779 177.936L121.607 163.506L146.236 177.936Z" fill="#FBFCFE" stroke="#0277FF" stroke-width="2.7"/>
<path d="M146.236 177.936L121.607 192.22L96.9779 177.936L121.607 163.506L146.236 177.936Z" stroke="#0277FF" stroke-width="2.7"/>
<path d="M120.261 194.56L120.408 223.093L95.8068 208.679L95.6595 180.293L120.261 194.56Z" stroke="#0277FF" stroke-width="2.7"/>
<path d="M147.566 208.684L123.108 223.1L122.961 194.556L147.566 180.286V208.684Z" stroke="#0277FF" stroke-width="2.7"/>
<path d="M142.746 149.711L120.867 137.296" stroke="#0277FF" stroke-width="2.7"/>
<path d="M186.814 130.618L165.106 143.328" stroke="#7DB7FD" stroke-width="2.7"/>
<path d="M168.69 140.001L148.887 151.561L129.085 140.001L148.887 128.559L168.69 140.001Z" stroke="#0277FF" stroke-width="2.7"/>
<path opacity="0.2" d="M147.537 153.899V176.642L127.747 165.206V142.346L147.537 153.899Z" fill="#FBFCFE" stroke="#0277FF" stroke-width="2.7"/>
<path d="M147.537 153.899V176.642L127.747 165.206V142.346L147.537 153.899Z" stroke="#0277FF" stroke-width="2.7"/>
<path d="M170.028 165.076L150.237 176.629V153.899L170.028 142.346V165.076Z" stroke="#0277FF" stroke-width="2.7"/>
<path d="M153.659 150.211L131.951 162.921" stroke="#0277FF" stroke-width="2.7"/>
<path d="M99.6085 149.711L121.487 137.296" stroke="#0277FF" stroke-width="2.7"/>
<path d="M56.727 130.618L78.4349 143.328" stroke="#7DB7FD" stroke-width="2.7"/>
<path d="M74.851 140.001L94.6532 151.561L114.455 140.001L94.6532 128.559L74.851 140.001Z" stroke="#0277FF" stroke-width="2.7"/>
<path d="M96.0032 153.899V176.642L115.793 165.206V142.346L96.0032 153.899Z" stroke="#0277FF" stroke-width="2.7"/>
<path d="M73.513 165.076L93.3032 176.629V153.899L73.513 142.346V165.076Z" stroke="#0277FF" stroke-width="2.7"/>
<path d="M89.4331 150.211L111.141 162.921" stroke="#0277FF" stroke-width="2.7"/>
<path fill-rule="evenodd" clip-rule="evenodd" d="M241.733 159.527H237.871V115.896C237.871 110.412 235.13 105.556 230.944 102.605V97.8879C230.944 91.0454 225.354 85.479 218.484 85.479H215.6L226.633 69.3554C230.331 63.9511 228.925 56.5574 223.499 52.8739L148.632 2.06351C146.003 0.278973 142.835 -0.379625 139.707 0.211206C136.582 0.801032 133.874 2.5675 132.082 5.18583L67.4625 99.6198H49.4805L53.8189 55.8823C53.8678 55.3893 54.1894 54.9621 54.638 54.794C60.2274 52.6952 65.0713 48.7757 68.277 43.7579C68.5296 43.3629 69.0059 43.137 69.4989 43.1867L97.7029 45.9616C99.7252 46.1569 101.524 44.6901 101.724 42.6772C101.923 40.6642 100.447 38.8717 98.4258 38.6729L70.2217 35.898C66.9479 35.5787 63.8258 37.0811 62.0717 39.8259C59.7147 43.5155 56.1531 46.3969 52.0436 47.9399C48.9503 49.1015 46.8262 51.8684 46.4996 55.1619L42.0902 99.6193H37.401L44.2621 30.4444C44.5091 27.9546 46.7405 26.1254 49.2436 26.3749L106.239 31.982C108.26 32.1763 110.06 30.7105 110.259 28.6976C110.459 26.6846 108.983 24.892 106.961 24.6933L49.9664 19.0861C43.4319 18.4441 37.5885 23.2154 36.9428 29.7241L31.4124 85.479H21.9942C15.124 85.479 9.5341 91.0454 9.5341 97.8879V101.106C3.91344 103.683 0 109.341 0 115.896V249.723C0 258.698 7.3319 266 16.3448 266H221.527C230.539 266 237.871 258.698 237.871 249.723V215.079H241.733C246.292 215.079 250 211.386 250 206.847V167.76C250.001 163.22 246.292 159.527 241.733 159.527ZM218.484 92.8039C221.299 92.8034 223.589 95.0844 223.589 97.8884V99.7543C222.913 99.669 222.226 99.6203 221.527 99.6203H205.924L210.588 92.8039H218.484ZM141.076 7.40709C139.881 7.63298 138.845 8.30864 138.159 9.31009L76.3625 99.6193H82.0099L128.231 32.0729C130.074 29.3797 133.346 27.929 136.572 28.3798C140.922 28.9862 145.434 28.1564 149.278 26.0431C152.138 24.4704 155.603 24.6395 158.321 26.4843L197.132 52.8242C199.85 54.6685 201.275 57.8179 200.852 61.0441C200.282 65.3807 201.157 69.8669 203.315 73.6769C204.939 76.5448 204.785 80.0245 202.914 82.7588L191.377 99.6188H197.024L220.556 65.2301C221.971 63.163 221.432 60.3348 219.357 58.9258L144.49 8.11538C143.725 7.59633 142.84 7.32627 141.934 7.32627C141.649 7.32627 141.362 7.35337 141.076 7.40709ZM139.779 71.5009C123.765 71.5009 110.619 83.9364 109.548 99.6193H90.9089L134.307 36.1976C134.554 35.8367 134.963 35.6219 135.383 35.6219C135.439 35.6219 135.495 35.6259 135.551 35.6334C141.467 36.4577 147.604 35.3302 152.832 32.4554C153.243 32.2285 153.771 32.2611 154.179 32.5372L192.99 58.8776C193.396 59.1537 193.62 59.6316 193.559 60.0954C192.784 65.9931 193.975 72.0942 196.91 77.2756C197.145 77.6918 197.117 78.2249 196.837 78.634L182.478 99.6188H170.011C168.939 83.9364 155.794 71.5009 139.779 71.5009ZM116.922 99.6198H162.637C161.584 87.9794 151.737 78.8252 139.779 78.8258C127.821 78.8258 117.975 87.9794 116.922 99.6198ZM16.8887 97.8879C16.8887 95.0839 19.1786 92.8029 21.9942 92.8029H30.686L30.0101 99.6193H16.8887V97.8879ZM16.3448 106.944C11.3875 106.944 7.35459 110.96 7.35459 115.896V126.059H230.516V115.896C230.516 110.96 226.484 106.944 221.527 106.944H16.3448ZM230.516 249.723C230.516 254.659 226.484 258.676 221.527 258.676H16.3448C11.3875 258.676 7.35459 254.659 7.35459 249.723V126.194H230.516V159.527H222.531C211.514 159.527 201.971 165.922 197.442 175.179C197.427 175.21 197.41 175.241 197.395 175.272C197.373 175.315 197.354 175.36 197.334 175.404C197.318 175.44 197.302 175.476 197.286 175.512C196.746 176.653 196.278 177.834 195.896 179.053L195.893 179.063C195.079 181.667 194.64 184.435 194.64 187.303C194.64 202.619 207.151 215.079 222.53 215.079H230.516L230.516 249.723Z" fill="#0277FF"/>
<path fill-rule="evenodd" clip-rule="evenodd" d="M223 195C227.418 195 231 191.418 231 187C231 182.582 227.418 179 223 179C218.582 179 215 182.582 215 187C215 191.418 218.582 195 223 195Z" stroke="#7DB7FD" stroke-width="5"/>
</svg>
