<svg width="20" height="20" viewBox="0 0 20 20" fill="none" xmlns="http://www.w3.org/2000/svg">
<g opacity="0.8">
<mask id="mask0" mask-type="alpha" maskUnits="userSpaceOnUse" x="0" y="0" width="20" height="20">
<path fill-rule="evenodd" clip-rule="evenodd" d="M9.99992 19.1666C4.93731 19.1666 0.833252 15.0626 0.833252 9.99998C0.833252 4.93737 4.93731 0.833313 9.99992 0.833313C15.0625 0.833313 19.1666 4.93737 19.1666 9.99998C19.1666 15.0626 15.0625 19.1666 9.99992 19.1666ZM9.99992 17.5C14.1421 17.5 17.4999 14.1421 17.4999 9.99998C17.4999 5.85784 14.1421 2.49998 9.99992 2.49998C5.85778 2.49998 2.49992 5.85784 2.49992 9.99998C2.49992 14.1421 5.85778 17.5 9.99992 17.5ZM9.99992 4.16665C10.4602 4.16665 10.8333 4.53974 10.8333 4.99998V9.6548L13.0892 11.9107C13.4146 12.2362 13.4146 12.7638 13.0892 13.0892C12.7637 13.4147 12.2361 13.4147 11.9107 13.0892L9.41066 10.5892C9.25438 10.433 9.16659 10.221 9.16659 9.99998V4.99998C9.16659 4.53974 9.53968 4.16665 9.99992 4.16665Z" fill="white"/>
</mask>
<g mask="url(#mask0)">
<rect width="20" height="20" fill="black"/>
</g>
</g>
</svg>
