<svg width="48" height="48" viewBox="0 0 48 48" fill="none" xmlns="http://www.w3.org/2000/svg">
<rect opacity="0.1" width="48" height="48" fill="#0277FF"/>
<path fill-rule="evenodd" clip-rule="evenodd" d="M27.4615 13.8487V18.0002H31.2938L27.4615 13.8487ZM26.0769 18.0002V13.5003H17.0769C16.6948 13.5003 16.3846 13.8359 16.3846 14.2511V33.7493C16.3846 34.1648 16.6948 34.4997 17.0769 34.4997H30.9231C31.3052 34.4997 31.6154 34.1648 31.6154 33.7493V19.5013H27.4615H26.0769V18.0002ZM33 18.0024V18.0028V35.25C33 35.6648 32.6898 36 32.3077 36H15.6923C15.3102 36 15 35.6648 15 35.25V12.7511C15 12.3356 15.3102 12 15.6923 12H27.4615V12.0026V12.0022L32.9979 18.0002H33V18.0024Z" fill="#0277FF"/>
</svg>
