<svg width="20" height="20" viewBox="0 0 20 20" fill="none" xmlns="http://www.w3.org/2000/svg">
<g opacity="0.8">
<path fill-rule="evenodd" clip-rule="evenodd" d="M8.33342 2.5H5.00008C4.53984 2.5 4.16675 2.8731 4.16675 3.33333V16.6667C4.16675 17.1269 4.53984 17.5 5.00008 17.5H8.33342C8.79365 17.5 9.16675 17.1269 9.16675 16.6667V3.33333C9.16675 2.8731 8.79365 2.5 8.33342 2.5ZM5.83341 15.8333V4.16667H7.50008V15.8333H5.83341ZM11.6667 2.5H15.0001C15.4603 2.5 15.8334 2.8731 15.8334 3.33333V16.6667C15.8334 17.1269 15.4603 17.5 15.0001 17.5H11.6667C11.2065 17.5 10.8334 17.1269 10.8334 16.6667V3.33333C10.8334 2.8731 11.2065 2.5 11.6667 2.5ZM12.5001 15.8333V4.16667H14.1667V15.8333H12.5001Z" fill="black"/>
<mask id="mask0" mask-type="alpha" maskUnits="userSpaceOnUse" x="4" y="2" width="12" height="16">
<path fill-rule="evenodd" clip-rule="evenodd" d="M8.33342 2.5H5.00008C4.53984 2.5 4.16675 2.8731 4.16675 3.33333V16.6667C4.16675 17.1269 4.53984 17.5 5.00008 17.5H8.33342C8.79365 17.5 9.16675 17.1269 9.16675 16.6667V3.33333C9.16675 2.8731 8.79365 2.5 8.33342 2.5ZM5.83341 15.8333V4.16667H7.50008V15.8333H5.83341ZM11.6667 2.5H15.0001C15.4603 2.5 15.8334 2.8731 15.8334 3.33333V16.6667C15.8334 17.1269 15.4603 17.5 15.0001 17.5H11.6667C11.2065 17.5 10.8334 17.1269 10.8334 16.6667V3.33333C10.8334 2.8731 11.2065 2.5 11.6667 2.5ZM12.5001 15.8333V4.16667H14.1667V15.8333H12.5001Z" fill="white"/>
</mask>
<g mask="url(#mask0)">
<rect width="20" height="20" fill="white"/>
</g>
</g>
</svg>
