<svg width="20" height="20" viewBox="0 0 20 20" fill="none" xmlns="http://www.w3.org/2000/svg">
<path fill-rule="evenodd" clip-rule="evenodd" d="M10 10.0001C7.69881 10.0001 5.83333 8.1346 5.83333 5.83341C5.83333 3.53223 7.69881 1.66675 10 1.66675C12.3012 1.66675 14.1667 3.53223 14.1667 5.83341C14.1667 8.1346 12.3012 10.0001 10 10.0001ZM17.5 17.5001V15.8334C17.5 13.5322 15.6345 11.6667 13.3333 11.6667H6.66667C4.36548 11.6667 2.5 13.5322 2.5 15.8334V17.5001C2.5 17.9603 2.8731 18.3334 3.33333 18.3334C3.79357 18.3334 4.16667 17.9603 4.16667 17.5001V15.8334C4.16667 14.4527 5.28595 13.3334 6.66667 13.3334H13.3333C14.714 13.3334 15.8333 14.4527 15.8333 15.8334V17.5001C15.8333 17.9603 16.2064 18.3334 16.6667 18.3334C17.1269 18.3334 17.5 17.9603 17.5 17.5001ZM12.5 5.83341C12.5 7.21413 11.3807 8.33341 10 8.33341C8.61929 8.33341 7.5 7.21413 7.5 5.83341C7.5 4.4527 8.61929 3.33341 10 3.33341C11.3807 3.33341 12.5 4.4527 12.5 5.83341Z" fill="#979797"/>
<mask id="mask0" mask-type="alpha" maskUnits="userSpaceOnUse" x="2" y="1" width="16" height="18">
<path fill-rule="evenodd" clip-rule="evenodd" d="M10 10.0001C7.69881 10.0001 5.83333 8.1346 5.83333 5.83341C5.83333 3.53223 7.69881 1.66675 10 1.66675C12.3012 1.66675 14.1667 3.53223 14.1667 5.83341C14.1667 8.1346 12.3012 10.0001 10 10.0001ZM17.5 17.5001V15.8334C17.5 13.5322 15.6345 11.6667 13.3333 11.6667H6.66667C4.36548 11.6667 2.5 13.5322 2.5 15.8334V17.5001C2.5 17.9603 2.8731 18.3334 3.33333 18.3334C3.79357 18.3334 4.16667 17.9603 4.16667 17.5001V15.8334C4.16667 14.4527 5.28595 13.3334 6.66667 13.3334H13.3333C14.714 13.3334 15.8333 14.4527 15.8333 15.8334V17.5001C15.8333 17.9603 16.2064 18.3334 16.6667 18.3334C17.1269 18.3334 17.5 17.9603 17.5 17.5001ZM12.5 5.83341C12.5 7.21413 11.3807 8.33341 10 8.33341C8.61929 8.33341 7.5 7.21413 7.5 5.83341C7.5 4.4527 8.61929 3.33341 10 3.33341C11.3807 3.33341 12.5 4.4527 12.5 5.83341Z" fill="white"/>
</mask>
<g mask="url(#mask0)">
<rect width="20" height="20" fill="#979797"/>
</g>
</svg>
