<svg width="22" height="22" viewBox="0 0 22 22" fill="none" xmlns="http://www.w3.org/2000/svg">
<path fill-rule="evenodd" clip-rule="evenodd" d="M11.4101 1.8335C10.4489 1.8335 9.55738 2.33541 9.05622 3.16163L1.29205 16.1233C0.79599 16.9821 0.793073 18.024 1.27694 18.8729C1.76082 19.7218 2.6588 20.2502 3.63586 20.261L19.1743 20.261C20.1614 20.2502 21.0594 19.7218 21.5433 18.8729C22.0271 18.024 22.0242 16.9821 21.5356 16.136L13.764 3.16163C13.2628 2.33541 12.3713 1.8335 11.4101 1.8335ZM2.8697 17.9651C2.70841 17.6821 2.70938 17.3348 2.87226 17.0527L10.6274 4.10629C10.7938 3.8334 11.0904 3.66683 11.4101 3.66683C11.7305 3.66683 12.0277 3.83413 12.1938 4.10809L19.9554 17.0654C20.1108 17.3348 20.1118 17.6821 19.9505 17.9651C19.7892 18.248 19.4899 18.4242 19.1642 18.4277L3.64593 18.4277C3.33032 18.4242 3.03099 18.248 2.8697 17.9651ZM10.4934 8.34434V12.011C10.4934 12.5173 10.9038 12.9277 11.4101 12.9277C11.9163 12.9277 12.3267 12.5173 12.3267 12.011V8.34434C12.3267 7.83808 11.9163 7.42768 11.4101 7.42768C10.9038 7.42768 10.4934 7.83808 10.4934 8.34434ZM12.0583 14.1128C12.4162 14.4708 12.4162 15.0512 12.0583 15.4092C11.7003 15.7672 11.1199 15.7672 10.7619 15.4092C10.4039 15.0512 10.4039 14.4708 10.7619 14.1128C11.1199 13.7549 11.7003 13.7549 12.0583 14.1128Z" fill="black"/>
<mask id="mask0" mask-type="alpha" maskUnits="userSpaceOnUse" x="0" y="1" width="22" height="20">
<path fill-rule="evenodd" clip-rule="evenodd" d="M11.4101 1.8335C10.4489 1.8335 9.55738 2.33541 9.05622 3.16163L1.29205 16.1233C0.79599 16.9821 0.793073 18.024 1.27694 18.8729C1.76082 19.7218 2.6588 20.2502 3.63586 20.261L19.1743 20.261C20.1614 20.2502 21.0594 19.7218 21.5433 18.8729C22.0271 18.024 22.0242 16.9821 21.5356 16.136L13.764 3.16163C13.2628 2.33541 12.3713 1.8335 11.4101 1.8335ZM2.8697 17.9651C2.70841 17.6821 2.70938 17.3348 2.87226 17.0527L10.6274 4.10629C10.7938 3.8334 11.0904 3.66683 11.4101 3.66683C11.7305 3.66683 12.0277 3.83413 12.1938 4.10809L19.9554 17.0654C20.1108 17.3348 20.1118 17.6821 19.9505 17.9651C19.7892 18.248 19.4899 18.4242 19.1642 18.4277L3.64593 18.4277C3.33032 18.4242 3.03099 18.248 2.8697 17.9651ZM10.4934 8.34434V12.011C10.4934 12.5173 10.9038 12.9277 11.4101 12.9277C11.9163 12.9277 12.3267 12.5173 12.3267 12.011V8.34434C12.3267 7.83808 11.9163 7.42768 11.4101 7.42768C10.9038 7.42768 10.4934 7.83808 10.4934 8.34434ZM12.0583 14.1128C12.4162 14.4708 12.4162 15.0512 12.0583 15.4092C11.7003 15.7672 11.1199 15.7672 10.7619 15.4092C10.4039 15.0512 10.4039 14.4708 10.7619 14.1128C11.1199 13.7549 11.7003 13.7549 12.0583 14.1128Z" fill="white"/>
</mask>
<g mask="url(#mask0)">
<rect width="22" height="22" fill="#FF5C70"/>
</g>
</svg>
