<svg width="22" height="22" viewBox="0 0 22 22" fill="none" xmlns="http://www.w3.org/2000/svg">
<path fill-rule="evenodd" clip-rule="evenodd" d="M0.916992 10.9998C0.916992 16.5687 5.43145 21.0832 11.0003 21.0832C16.5692 21.0832 21.0837 16.5687 21.0837 10.9998C21.0837 5.43097 16.5692 0.916504 11.0003 0.916504C5.43145 0.916504 0.916992 5.43097 0.916992 10.9998ZM19.2503 10.9998C19.2503 15.5562 15.5567 19.2498 11.0003 19.2498C6.44398 19.2498 2.75033 15.5562 2.75033 10.9998C2.75033 6.44349 6.44398 2.74984 11.0003 2.74984C15.5567 2.74984 19.2503 6.44349 19.2503 10.9998ZM10.0837 7.33317V10.9998C10.0837 11.5061 10.4941 11.9165 11.0003 11.9165C11.5066 11.9165 11.917 11.5061 11.917 10.9998V7.33317C11.917 6.82691 11.5066 6.4165 11.0003 6.4165C10.4941 6.4165 10.0837 6.82691 10.0837 7.33317ZM11.6485 13.1017C12.0065 13.4596 12.0065 14.04 11.6485 14.398C11.2905 14.756 10.7101 14.756 10.3521 14.398C9.99416 14.04 9.99416 13.4596 10.3521 13.1017C10.7101 12.7437 11.2905 12.7437 11.6485 13.1017Z" fill="black"/>
<mask id="mask0" mask-type="alpha" maskUnits="userSpaceOnUse" x="0" y="0" width="22" height="22">
<path fill-rule="evenodd" clip-rule="evenodd" d="M0.916992 10.9998C0.916992 16.5687 5.43145 21.0832 11.0003 21.0832C16.5692 21.0832 21.0837 16.5687 21.0837 10.9998C21.0837 5.43097 16.5692 0.916504 11.0003 0.916504C5.43145 0.916504 0.916992 5.43097 0.916992 10.9998ZM19.2503 10.9998C19.2503 15.5562 15.5567 19.2498 11.0003 19.2498C6.44398 19.2498 2.75033 15.5562 2.75033 10.9998C2.75033 6.44349 6.44398 2.74984 11.0003 2.74984C15.5567 2.74984 19.2503 6.44349 19.2503 10.9998ZM10.0837 7.33317V10.9998C10.0837 11.5061 10.4941 11.9165 11.0003 11.9165C11.5066 11.9165 11.917 11.5061 11.917 10.9998V7.33317C11.917 6.82691 11.5066 6.4165 11.0003 6.4165C10.4941 6.4165 10.0837 6.82691 10.0837 7.33317ZM11.6485 13.1017C12.0065 13.4596 12.0065 14.04 11.6485 14.398C11.2905 14.756 10.7101 14.756 10.3521 14.398C9.99416 14.04 9.99416 13.4596 10.3521 13.1017C10.7101 12.7437 11.2905 12.7437 11.6485 13.1017Z" fill="white"/>
</mask>
<g mask="url(#mask0)">
<rect width="22" height="22" fill="#1569FF"/>
</g>
</svg>
