<svg width="20" height="20" viewBox="0 0 20 20" fill="none" xmlns="http://www.w3.org/2000/svg">
<g opacity="0.8">
<path fill-rule="evenodd" clip-rule="evenodd" d="M18.0893 6.07743L13.9227 1.91076C13.5972 1.58533 13.0696 1.58533 12.7442 1.91076L1.91083 12.7441C1.75455 12.9004 1.66675 13.1123 1.66675 13.3334V17.5C1.66675 17.9603 2.03984 18.3334 2.50008 18.3334H6.66675C6.88776 18.3334 7.09972 18.2456 7.256 18.0893L18.0893 7.25594C18.4148 6.93051 18.4148 6.40287 18.0893 6.07743ZM3.33341 16.6667V13.6785L13.3334 3.67853L16.3216 6.66669L6.32157 16.6667H3.33341Z" fill="black"/>
<mask id="mask0" mask-type="alpha" maskUnits="userSpaceOnUse" x="1" y="1" width="18" height="18">
<path fill-rule="evenodd" clip-rule="evenodd" d="M18.0893 6.07743L13.9227 1.91076C13.5972 1.58533 13.0696 1.58533 12.7442 1.91076L1.91083 12.7441C1.75455 12.9004 1.66675 13.1123 1.66675 13.3334V17.5C1.66675 17.9603 2.03984 18.3334 2.50008 18.3334H6.66675C6.88776 18.3334 7.09972 18.2456 7.256 18.0893L18.0893 7.25594C18.4148 6.93051 18.4148 6.40287 18.0893 6.07743ZM3.33341 16.6667V13.6785L13.3334 3.67853L16.3216 6.66669L6.32157 16.6667H3.33341Z" fill="white"/>
</mask>
<g mask="url(#mask0)">
<rect width="20" height="20" fill="black"/>
</g>
</g>
</svg>
