<svg width="24" height="24" viewBox="0 0 24 24" fill="none" xmlns="http://www.w3.org/2000/svg">
<path fill-rule="evenodd" clip-rule="evenodd" d="M13.7076 1.29342C13.5266 1.11215 13.2764 1 13 1H6C4.34315 1 3 2.34315 3 4V20C3 21.6569 4.34315 23 6 23H18C19.6569 23 21 21.6569 21 20V9C21 8.44772 20.5523 8 20 8H17.5858L14 4.41421V2C14 1.72413 13.8883 1.47435 13.7076 1.29342ZM12 3H6C5.44772 3 5 3.44772 5 4V20C5 20.5523 5.44772 21 6 21H18C18.5523 21 19 20.5523 19 20V10" fill="black"/>
<mask id="mask0" mask-type="alpha" maskUnits="userSpaceOnUse" x="3" y="1" width="18" height="22">
<path fill-rule="evenodd" clip-rule="evenodd" d="M13.7076 1.29342C13.5266 1.11215 13.2764 1 13 1H6C4.34315 1 3 2.34315 3 4V20C3 21.6569 4.34315 23 6 23H18C19.6569 23 21 21.6569 21 20V9C21 8.44772 20.5523 8 20 8H17.5858L14 4.41421V2C14 1.72413 13.8883 1.47435 13.7076 1.29342ZM12 3H6C5.44772 3 5 3.44772 5 4V20C5 20.5523 5.44772 21 6 21H18C18.5523 21 19 20.5523 19 20V10" fill="white"/>
</mask>
<g mask="url(#mask0)">
<rect width="24" height="24" fill="#1569FF"/>
</g>
</svg>
