<svg width="21" height="21" viewBox="0 0 21 21" fill="none" xmlns="http://www.w3.org/2000/svg">
<path fill-rule="evenodd" clip-rule="evenodd" d="M9.92087 10.4999V2.16659C9.92087 1.70635 10.294 1.33325 10.7542 1.33325C11.2144 1.33325 11.5875 1.70635 11.5875 2.16659V10.4999C11.5875 10.9602 11.2144 11.3333 10.7542 11.3333C10.294 11.3333 9.92087 10.9602 9.92087 10.4999ZM15.4638 16.05C18.0672 13.4468 18.0677 9.22613 15.4648 6.62241C15.1395 6.29692 15.1395 5.76928 15.465 5.4439C15.7905 5.11852 16.3182 5.1186 16.6435 5.44409C19.8971 8.69874 19.8966 13.9746 16.6423 17.2286C13.388 20.4825 8.11208 20.4825 4.85778 17.2286C1.60349 13.9746 1.60291 8.69874 4.8565 5.44409C5.18189 5.1186 5.70952 5.11852 6.03501 5.4439C6.3605 5.76928 6.36059 6.29692 6.03521 6.62241C3.43234 9.22613 3.4328 13.4468 6.03623 16.05C8.63967 18.6531 12.8604 18.6531 15.4638 16.05Z" fill="black"/>
<mask id="mask0" mask-type="alpha" maskUnits="userSpaceOnUse" x="2" y="1" width="18" height="19">
<path fill-rule="evenodd" clip-rule="evenodd" d="M9.92087 10.4999V2.16659C9.92087 1.70635 10.294 1.33325 10.7542 1.33325C11.2144 1.33325 11.5875 1.70635 11.5875 2.16659V10.4999C11.5875 10.9602 11.2144 11.3333 10.7542 11.3333C10.294 11.3333 9.92087 10.9602 9.92087 10.4999ZM15.4638 16.05C18.0672 13.4468 18.0677 9.22613 15.4648 6.62241C15.1395 6.29692 15.1395 5.76928 15.465 5.4439C15.7905 5.11852 16.3182 5.1186 16.6435 5.44409C19.8971 8.69874 19.8966 13.9746 16.6423 17.2286C13.388 20.4825 8.11208 20.4825 4.85778 17.2286C1.60349 13.9746 1.60291 8.69874 4.8565 5.44409C5.18189 5.1186 5.70952 5.11852 6.03501 5.4439C6.3605 5.76928 6.36059 6.29692 6.03521 6.62241C3.43234 9.22613 3.4328 13.4468 6.03623 16.05C8.63967 18.6531 12.8604 18.6531 15.4638 16.05Z" fill="white"/>
</mask>
<g mask="url(#mask0)">
<rect x="0.75" y="0.5" width="20" height="20" fill="#91989E"/>
</g>
</svg>
