<svg width="22" height="22" viewBox="0 0 22 22" fill="none" xmlns="http://www.w3.org/2000/svg">
<path fill-rule="evenodd" clip-rule="evenodd" d="M19.0942 8.25C18.8983 8.24921 18.7162 8.14954 18.6072 7.98891C18.5942 7.92641 18.5745 7.86528 18.5486 7.80655C18.4503 7.58371 18.4975 7.32345 18.6678 7.14933L18.7157 7.10151C19.2317 6.58606 19.5219 5.88613 19.5219 5.15625C19.5219 4.42637 19.2317 3.72644 18.7153 3.21063C18.2002 2.69496 17.5003 2.40481 16.7704 2.40481C16.0405 2.40481 15.3406 2.69496 14.8248 3.21135L14.7702 3.26599C14.6032 3.4292 14.343 3.47639 14.1201 3.37804C13.8928 3.28057 13.7509 3.06633 13.75 2.82884L13.75 2.75C13.75 1.23122 12.5188 0 11 0C9.48122 0 8.25 1.23122 8.25 2.75V2.90583C8.24921 3.10169 8.14954 3.28381 7.98891 3.39277C7.92641 3.40585 7.86528 3.42546 7.80655 3.45138C7.58371 3.54972 7.32345 3.50253 7.14933 3.33221L7.10151 3.28432C6.58606 2.76829 5.88613 2.47814 5.15625 2.47814C4.42637 2.47814 3.72644 2.76829 3.21063 3.28468C2.69496 3.79977 2.40481 4.49971 2.40481 5.22958C2.40481 5.95946 2.69496 6.6594 3.21135 7.17521L3.26599 7.22985C3.4292 7.39678 3.47639 7.65704 3.37804 7.87988C3.27189 8.1632 3.05566 8.31786 2.75 8.32333C1.23122 8.32333 0 9.55455 0 11.0733C0 12.5921 1.23122 13.8233 2.75 13.8233H2.90583C3.13966 13.8243 3.3539 13.9662 3.44746 14.1844C3.54972 14.4163 3.50253 14.6766 3.33221 14.8507L3.28432 14.8985C2.76829 15.4139 2.47814 16.1139 2.47814 16.8438C2.47814 17.5736 2.76829 18.2736 3.28468 18.7894C3.79977 19.305 4.49971 19.5952 5.22958 19.5952C5.95946 19.5952 6.6594 19.305 7.17521 18.7887L7.22985 18.734C7.39678 18.5708 7.65704 18.5236 7.87988 18.622C8.1632 18.7281 8.31786 18.9443 8.32333 19.25C8.32333 20.7688 9.55455 22 11.0733 22C12.5921 22 13.8233 20.7688 13.8233 19.25V19.0942C13.8243 18.8603 13.9662 18.6461 14.1844 18.5525C14.4163 18.4503 14.6766 18.4975 14.8507 18.6678L14.8985 18.7157C15.4139 19.2317 16.1139 19.5219 16.8438 19.5219C17.5736 19.5219 18.2736 19.2317 18.7894 18.7153C19.305 18.2002 19.5952 17.5003 19.5952 16.7704C19.5952 16.0405 19.305 15.3406 18.7887 14.8248L18.734 14.7702C18.5708 14.6032 18.5236 14.343 18.6259 14.1111C18.7194 13.8928 18.9337 13.7509 19.1712 13.75L19.25 13.75C20.7688 13.75 22 12.5188 22 11C22 9.48122 20.7688 8.25 19.25 8.25H19.0942ZM5.86015 4.63568C6.53091 5.29188 7.50266 5.5026 8.36897 5.19891C8.45216 5.18802 8.53365 5.16574 8.6111 5.13254C9.50102 4.75114 10.0795 3.87769 10.0833 2.90949L10.0833 2.75C10.0833 2.24374 10.4937 1.83333 11 1.83333C11.5063 1.83333 11.9167 2.24374 11.9167 2.75V2.8325C11.9205 3.80435 12.499 4.67781 13.3889 5.05921C14.2884 5.45625 15.3494 5.26385 16.0593 4.56946L16.1215 4.50735C16.2938 4.33486 16.5271 4.23814 16.7704 4.23814C17.0137 4.23814 17.247 4.33486 17.419 4.50699C17.5918 4.67965 17.6885 4.91296 17.6885 5.15625C17.6885 5.39954 17.5918 5.63285 17.4197 5.80479L17.3643 5.86015C16.7081 6.53091 16.4974 7.50266 16.8011 8.36897C16.812 8.45216 16.8343 8.53365 16.8675 8.6111C17.2489 9.50102 18.1223 10.0795 19.0905 10.0833L19.25 10.0833C19.7563 10.0833 20.1667 10.4937 20.1667 11C20.1667 11.5063 19.7563 11.9167 19.25 11.9167H19.1675C18.1956 11.9205 17.3222 12.499 16.9447 13.3799C16.5438 14.2884 16.7361 15.3494 17.4305 16.0593L17.4927 16.1215C17.6651 16.2938 17.7619 16.5271 17.7619 16.7704C17.7619 17.0137 17.6651 17.247 17.493 17.419C17.3204 17.5918 17.087 17.6885 16.8438 17.6885C16.6005 17.6885 16.3671 17.5918 16.1952 17.4197L16.1398 17.3643C15.4228 16.6628 14.3617 16.4704 13.4532 16.8714C12.5723 17.2489 11.9939 18.1223 11.99 19.0905L11.99 19.25C11.99 19.7563 11.5796 20.1667 11.0733 20.1667C10.5671 20.1667 10.1567 19.7563 10.1567 19.25V19.1675C10.1331 18.1489 9.50256 17.2673 8.56642 16.923C7.71162 16.5438 6.65056 16.7361 5.94067 17.4305L5.87849 17.4927C5.70619 17.6651 5.47288 17.7619 5.22958 17.7619C4.98629 17.7619 4.75298 17.6651 4.58104 17.493C4.40819 17.3204 4.31147 17.087 4.31147 16.8438C4.31147 16.6005 4.40819 16.3671 4.58032 16.1952L4.63568 16.1398C5.33719 15.4228 5.52958 14.3617 5.12862 13.4532C4.75114 12.5723 3.87769 11.9939 2.90949 11.99L2.75 11.99C2.24374 11.99 1.83333 11.5796 1.83333 11.0733C1.83333 10.5671 2.24374 10.1567 2.75 10.1567H2.8325C3.85111 10.1331 4.73269 9.50256 5.07699 8.56642C5.45625 7.71162 5.26385 6.65056 4.56946 5.94067L4.50735 5.87849C4.33486 5.70619 4.23814 5.47288 4.23814 5.22958C4.23814 4.98629 4.33486 4.75298 4.50699 4.58104C4.67965 4.40819 4.91296 4.31147 5.15625 4.31147C5.39954 4.31147 5.63285 4.40819 5.80479 4.58032L5.86015 4.63568ZM11 14.6667C8.97496 14.6667 7.33333 13.025 7.33333 11C7.33333 8.97496 8.97496 7.33333 11 7.33333C13.025 7.33333 14.6667 8.97496 14.6667 11C14.6667 13.025 13.025 14.6667 11 14.6667ZM12.8333 11C12.8333 12.0125 12.0125 12.8333 11 12.8333C9.98748 12.8333 9.16667 12.0125 9.16667 11C9.16667 9.98748 9.98748 9.16667 11 9.16667C12.0125 9.16667 12.8333 9.98748 12.8333 11Z" fill="black"/>
<mask id="mask0" mask-type="alpha" maskUnits="userSpaceOnUse" x="0" y="0" width="22" height="22">
<path fill-rule="evenodd" clip-rule="evenodd" d="M19.0942 8.25C18.8983 8.24921 18.7162 8.14954 18.6072 7.98891C18.5942 7.92641 18.5745 7.86528 18.5486 7.80655C18.4503 7.58371 18.4975 7.32345 18.6678 7.14933L18.7157 7.10151C19.2317 6.58606 19.5219 5.88613 19.5219 5.15625C19.5219 4.42637 19.2317 3.72644 18.7153 3.21063C18.2002 2.69496 17.5003 2.40481 16.7704 2.40481C16.0405 2.40481 15.3406 2.69496 14.8248 3.21135L14.7702 3.26599C14.6032 3.4292 14.343 3.47639 14.1201 3.37804C13.8928 3.28057 13.7509 3.06633 13.75 2.82884L13.75 2.75C13.75 1.23122 12.5188 0 11 0C9.48122 0 8.25 1.23122 8.25 2.75V2.90583C8.24921 3.10169 8.14954 3.28381 7.98891 3.39277C7.92641 3.40585 7.86528 3.42546 7.80655 3.45138C7.58371 3.54972 7.32345 3.50253 7.14933 3.33221L7.10151 3.28432C6.58606 2.76829 5.88613 2.47814 5.15625 2.47814C4.42637 2.47814 3.72644 2.76829 3.21063 3.28468C2.69496 3.79977 2.40481 4.49971 2.40481 5.22958C2.40481 5.95946 2.69496 6.6594 3.21135 7.17521L3.26599 7.22985C3.4292 7.39678 3.47639 7.65704 3.37804 7.87988C3.27189 8.1632 3.05566 8.31786 2.75 8.32333C1.23122 8.32333 0 9.55455 0 11.0733C0 12.5921 1.23122 13.8233 2.75 13.8233H2.90583C3.13966 13.8243 3.3539 13.9662 3.44746 14.1844C3.54972 14.4163 3.50253 14.6766 3.33221 14.8507L3.28432 14.8985C2.76829 15.4139 2.47814 16.1139 2.47814 16.8438C2.47814 17.5736 2.76829 18.2736 3.28468 18.7894C3.79977 19.305 4.49971 19.5952 5.22958 19.5952C5.95946 19.5952 6.6594 19.305 7.17521 18.7887L7.22985 18.734C7.39678 18.5708 7.65704 18.5236 7.87988 18.622C8.1632 18.7281 8.31786 18.9443 8.32333 19.25C8.32333 20.7688 9.55455 22 11.0733 22C12.5921 22 13.8233 20.7688 13.8233 19.25V19.0942C13.8243 18.8603 13.9662 18.6461 14.1844 18.5525C14.4163 18.4503 14.6766 18.4975 14.8507 18.6678L14.8985 18.7157C15.4139 19.2317 16.1139 19.5219 16.8438 19.5219C17.5736 19.5219 18.2736 19.2317 18.7894 18.7153C19.305 18.2002 19.5952 17.5003 19.5952 16.7704C19.5952 16.0405 19.305 15.3406 18.7887 14.8248L18.734 14.7702C18.5708 14.6032 18.5236 14.343 18.6259 14.1111C18.7194 13.8928 18.9337 13.7509 19.1712 13.75L19.25 13.75C20.7688 13.75 22 12.5188 22 11C22 9.48122 20.7688 8.25 19.25 8.25H19.0942ZM5.86015 4.63568C6.53091 5.29188 7.50266 5.5026 8.36897 5.19891C8.45216 5.18802 8.53365 5.16574 8.6111 5.13254C9.50102 4.75114 10.0795 3.87769 10.0833 2.90949L10.0833 2.75C10.0833 2.24374 10.4937 1.83333 11 1.83333C11.5063 1.83333 11.9167 2.24374 11.9167 2.75V2.8325C11.9205 3.80435 12.499 4.67781 13.3889 5.05921C14.2884 5.45625 15.3494 5.26385 16.0593 4.56946L16.1215 4.50735C16.2938 4.33486 16.5271 4.23814 16.7704 4.23814C17.0137 4.23814 17.247 4.33486 17.419 4.50699C17.5918 4.67965 17.6885 4.91296 17.6885 5.15625C17.6885 5.39954 17.5918 5.63285 17.4197 5.80479L17.3643 5.86015C16.7081 6.53091 16.4974 7.50266 16.8011 8.36897C16.812 8.45216 16.8343 8.53365 16.8675 8.6111C17.2489 9.50102 18.1223 10.0795 19.0905 10.0833L19.25 10.0833C19.7563 10.0833 20.1667 10.4937 20.1667 11C20.1667 11.5063 19.7563 11.9167 19.25 11.9167H19.1675C18.1956 11.9205 17.3222 12.499 16.9447 13.3799C16.5438 14.2884 16.7361 15.3494 17.4305 16.0593L17.4927 16.1215C17.6651 16.2938 17.7619 16.5271 17.7619 16.7704C17.7619 17.0137 17.6651 17.247 17.493 17.419C17.3204 17.5918 17.087 17.6885 16.8438 17.6885C16.6005 17.6885 16.3671 17.5918 16.1952 17.4197L16.1398 17.3643C15.4228 16.6628 14.3617 16.4704 13.4532 16.8714C12.5723 17.2489 11.9939 18.1223 11.99 19.0905L11.99 19.25C11.99 19.7563 11.5796 20.1667 11.0733 20.1667C10.5671 20.1667 10.1567 19.7563 10.1567 19.25V19.1675C10.1331 18.1489 9.50256 17.2673 8.56642 16.923C7.71162 16.5438 6.65056 16.7361 5.94067 17.4305L5.87849 17.4927C5.70619 17.6651 5.47288 17.7619 5.22958 17.7619C4.98629 17.7619 4.75298 17.6651 4.58104 17.493C4.40819 17.3204 4.31147 17.087 4.31147 16.8438C4.31147 16.6005 4.40819 16.3671 4.58032 16.1952L4.63568 16.1398C5.33719 15.4228 5.52958 14.3617 5.12862 13.4532C4.75114 12.5723 3.87769 11.9939 2.90949 11.99L2.75 11.99C2.24374 11.99 1.83333 11.5796 1.83333 11.0733C1.83333 10.5671 2.24374 10.1567 2.75 10.1567H2.8325C3.85111 10.1331 4.73269 9.50256 5.07699 8.56642C5.45625 7.71162 5.26385 6.65056 4.56946 5.94067L4.50735 5.87849C4.33486 5.70619 4.23814 5.47288 4.23814 5.22958C4.23814 4.98629 4.33486 4.75298 4.50699 4.58104C4.67965 4.40819 4.91296 4.31147 5.15625 4.31147C5.39954 4.31147 5.63285 4.40819 5.80479 4.58032L5.86015 4.63568ZM11 14.6667C8.97496 14.6667 7.33333 13.025 7.33333 11C7.33333 8.97496 8.97496 7.33333 11 7.33333C13.025 7.33333 14.6667 8.97496 14.6667 11C14.6667 13.025 13.025 14.6667 11 14.6667ZM12.8333 11C12.8333 12.0125 12.0125 12.8333 11 12.8333C9.98748 12.8333 9.16667 12.0125 9.16667 11C9.16667 9.98748 9.98748 9.16667 11 9.16667C12.0125 9.16667 12.8333 9.98748 12.8333 11Z" fill="white"/>
</mask>
<g mask="url(#mask0)">
<rect width="22" height="22" fill="#919BB0"/>
</g>
</svg>
