<svg width="80" height="80" viewBox="0 0 80 80" fill="none" xmlns="http://www.w3.org/2000/svg">
<path d="M40 76.6667C57.3836 76.6667 71.9303 64.5671 75.7031 48.3333C71.9303 32.0996 57.3836 20 40 20C22.6164 20 8.06966 32.0996 4.29688 48.3333C8.06966 64.5671 22.6164 76.6667 40 76.6667Z" fill="#CCE4FF"/>
<path d="M42.1956 21.8413L54.825 15.5254L57.8068 21.4881L45.1774 27.804L42.1956 21.8413Z" fill="#007AFF"/>
<path d="M22.194 21.492L25.175 15.5293L37.8044 21.8444L34.8226 27.8071L22.194 21.492Z" fill="#007AFF"/>
<path d="M40.0163 46.6504C34.2936 46.6504 28.7785 48.7264 24.4849 52.4951L21.98 54.6932L26.3786 59.703L28.8835 57.5049C31.9596 54.8047 35.9147 53.3171 40.0187 53.3171C44.1252 53.3171 48.0713 54.7982 51.1369 57.4886L53.6418 59.6867L58.0404 54.6785L55.5347 52.478C51.2516 48.7199 45.7414 46.6504 40.0163 46.6504V46.6504Z" fill="#007AFF"/>
<path fill-rule="evenodd" clip-rule="evenodd" d="M0 40C0 17.9435 17.9435 0 40 0C62.0548 0 80 17.9435 80 40C80 62.0565 62.0548 80 40 80C17.9435 80 0 62.0565 0 40ZM6.66667 40C6.66667 58.3797 21.6203 73.3333 40 73.3333C58.3797 73.3333 73.3333 58.3797 73.3333 40C73.3333 21.6203 58.3797 6.66667 40 6.66667C21.6203 6.66667 6.66667 21.6203 6.66667 40Z" fill="#007AFF"/>
<path d="M23.3333 30H30V36.6667H23.3333V30Z" fill="#007AFF"/>
<path d="M50 30H56.6667V36.6667H50V30Z" fill="#007AFF"/>
</svg>
