<svg width="94" height="93" viewBox="0 0 94 93" fill="none" xmlns="http://www.w3.org/2000/svg">
<mask id="path-1-outside-1" maskUnits="userSpaceOnUse" x="0" y="0" width="61" height="40" fill="black">
<rect fill="white" width="61" height="40"/>
<path fill-rule="evenodd" clip-rule="evenodd" d="M46.3105 13.5487C43.2674 6.74257 36.4375 2 28.5 2C18.4743 2 10.2157 9.5661 9.12274 19.2999C5.02647 20.3553 2 24.0742 2 28.5C2 33.7467 6.25329 38 11.5 38C12.2754 38 13.0291 37.9071 13.7505 37.7318V26.7827C13.7505 24.654 15.4687 22.9218 17.5803 22.9218H58.9908C58.9969 22.782 59 22.6413 59 22.5C59 17.2533 54.7467 13 49.5 13C48.3811 13 47.3074 13.1934 46.3105 13.5487Z"/>
</mask>
<path d="M46.3105 13.5487L44.4847 14.365L45.2397 16.0534L46.9819 15.4326L46.3105 13.5487ZM9.12274 19.2999L9.62174 21.2366L10.9564 20.8927L11.1102 19.523L9.12274 19.2999ZM13.7505 37.7318L14.2226 39.6753L15.7505 39.3042V37.7318H13.7505ZM58.9908 22.9218V24.9218H60.9053L60.9889 23.0091L58.9908 22.9218ZM28.5 4C35.6203 4 41.7518 8.25266 44.4847 14.365L48.1363 12.7323C44.783 5.23247 37.2547 0 28.5 0V4ZM11.1102 19.523C12.0909 10.7897 19.5039 4 28.5 4V0C17.4446 0 8.34056 8.34247 7.13523 19.0767L11.1102 19.523ZM4 28.5C4 25.0087 6.3874 22.0699 9.62174 21.2366L8.62374 17.3631C3.66554 18.6406 0 23.1397 0 28.5H4ZM11.5 36C7.35786 36 4 32.6421 4 28.5H0C0 34.8513 5.14873 40 11.5 40V36ZM13.2784 35.7884C12.7103 35.9264 12.1151 36 11.5 36V40C12.4356 40 13.3478 39.8879 14.2226 39.6753L13.2784 35.7884ZM11.7505 26.7827V37.7318H15.7505V26.7827H11.7505ZM17.5803 20.9218C14.3489 20.9218 11.7505 23.5647 11.7505 26.7827H15.7505C15.7505 25.7433 16.5885 24.9218 17.5803 24.9218V20.9218ZM58.9908 20.9218H17.5803V24.9218H58.9908V20.9218ZM57 22.5C57 22.6122 56.9976 22.7238 56.9927 22.8345L60.9889 23.0091C60.9963 22.8402 61 22.6705 61 22.5H57ZM49.5 15C53.6421 15 57 18.3579 57 22.5H61C61 16.1487 55.8513 11 49.5 11V15ZM46.9819 15.4326C47.7663 15.1531 48.6131 15 49.5 15V11C48.1492 11 46.8486 11.2338 45.6392 11.6647L46.9819 15.4326Z" fill="#7DB7FD" mask="url(#path-1-outside-1)"/>
<path d="M28 6C24.6845 6 21.6382 7.1525 19.2399 9.07872C18.8226 9.41385 18.425 9.7724 18.0489 10.1524C17.5308 10.6759 17.0537 11.2401 16.6228 11.8398C14.9721 14.1372 14 16.9551 14 20" stroke="#7DB7FD" stroke-linecap="round"/>
<path fill-rule="evenodd" clip-rule="evenodd" d="M59.3146 81.9521H21.0284V77.2334H21.2393C22.5881 77.2334 23.6856 76.127 23.6856 74.7678V66.2106C23.6856 64.8515 22.5881 63.745 21.2393 63.745H21.0284V48.4655H21.2393C22.5881 48.4655 23.6856 47.359 23.6856 45.9998V37.4432C23.6856 36.0835 22.5881 34.9771 21.2393 34.9771H21.0284V30.2584H72.3056V59.859C72.3056 60.4669 72.7938 60.9591 73.3969 60.9591C73.9994 60.9591 74.4882 60.4669 74.4882 59.859V30.141C74.4882 28.9921 73.5611 28.0581 72.4221 28.0581H20.9119C19.7729 28.0581 18.8458 28.9921 18.8458 30.141V35.0051C17.6716 35.1851 16.7695 36.2102 16.7695 37.4432V45.9998C16.7695 47.2329 17.6721 48.2575 18.8458 48.4374V63.7731C17.6716 63.953 16.7695 64.9776 16.7695 66.2106V74.7672C16.7695 76.0003 17.6721 77.0248 18.8458 77.2053V82.0695C18.8458 83.2184 19.7729 84.1524 20.9119 84.1524H59.3146C59.9171 84.1524 60.4059 83.6596 60.4059 83.0522C60.4059 82.4448 59.9171 81.9521 59.3146 81.9521ZM21.503 66.2106V74.7672C21.503 74.9139 21.3848 75.0331 21.2393 75.0331H19.2153C19.0698 75.0331 18.9516 74.9139 18.9516 74.7672V66.2106C18.9516 66.0645 19.0698 65.9453 19.2153 65.9453H21.2399C21.3848 65.9453 21.503 66.0645 21.503 66.2106ZM21.503 45.9998V37.4432C21.503 37.2966 21.3848 37.1774 21.2399 37.1774H19.2153C19.0698 37.1774 18.9516 37.2966 18.9516 37.4432V45.9998C18.9516 46.146 19.0698 46.2651 19.2153 46.2651H21.2393C21.3848 46.2651 21.503 46.146 21.503 45.9998Z" fill="#0277FF"/>
<path fill-rule="evenodd" clip-rule="evenodd" d="M61.0652 60.3873L56.1953 57.5521C56.2823 57.0278 56.3277 56.4892 56.3277 55.9403C56.3277 51.6875 53.6097 48.0627 49.8328 46.7385V41.1225C49.8328 39.38 48.4267 37.9607 46.6965 37.959H46.6601C44.918 37.9607 43.5005 39.3909 43.5005 41.1471V46.7385C39.7242 48.0632 37.0062 51.688 37.0062 55.9408C37.0062 56.4898 37.0511 57.0278 37.138 57.5521L32.2687 60.3873C30.7812 61.2531 30.2475 63.1807 31.0785 64.6836L31.1098 64.7398C32.3267 66.7178 34.3393 66.4639 35.4346 65.9162L40.1811 63.1526C41.8965 64.722 44.1729 65.6801 46.6664 65.6801C49.1604 65.6801 51.4362 64.722 53.1522 63.1526L57.8982 65.9162C60.1666 67.3349 61.67 65.6543 62.2258 64.7364L62.2548 64.6842C63.0864 63.1807 62.5527 61.2531 61.0652 60.3873ZM45.6831 41.1471C45.6831 40.6028 46.1224 40.1599 46.6669 40.1593H46.6959C47.2223 40.1599 47.6508 40.5919 47.6508 41.1225C47.6508 41.6753 47.6561 42.229 47.6614 42.7828V42.7829V42.783V42.7831V42.7833C47.6723 43.9359 47.6833 45.0896 47.6468 46.2394C46.526 46.0377 45.6836 46.2514 45.6836 46.2514C45.6831 46.2514 45.6831 41.1471 45.6831 41.1471ZM33.0144 63.6654C33.3452 64.1565 34.0307 64.2361 34.3438 64.0104L38.7147 61.4657C38.343 60.923 38.0241 60.3415 37.7666 59.7272L33.3605 62.2925C32.8996 62.5607 32.7308 63.1532 32.9848 63.6127L33.0144 63.6654ZM46.6669 63.4792C42.5433 63.4792 39.1887 60.0974 39.1887 55.9403C39.1887 51.7837 42.5433 48.4019 46.6669 48.4019C50.79 48.4019 54.1451 51.7837 54.1451 55.9403C54.1451 60.0974 50.7906 63.4792 46.6669 63.4792ZM60.3212 63.6614L60.3485 63.6127C60.6025 63.1532 60.4343 62.5607 59.9733 62.2925L55.5672 59.7272C55.3092 60.3415 54.9903 60.923 54.6186 61.4657L58.99 64.0104C59.5971 64.4012 60.1484 63.9852 60.3212 63.6614Z" fill="#0277FF"/>
<path d="M46.6666 51.29C44.1165 51.29 42.0498 53.3794 42.0498 55.9403H43.0498C43.0498 53.924 44.6764 52.29 46.6666 52.29V51.29ZM51.2834 55.9403C51.2834 53.3794 49.2167 51.29 46.6666 51.29V52.29C48.6568 52.29 50.2834 53.924 50.2834 55.9403H51.2834ZM46.6666 60.5911C49.2168 60.5911 51.2834 58.5011 51.2834 55.9403H50.2834C50.2834 57.9566 48.6567 59.5911 46.6666 59.5911V60.5911ZM42.0498 55.9403C42.0498 58.5017 44.1165 60.5911 46.6666 60.5911V59.5911C44.6765 59.5911 43.0498 57.9571 43.0498 55.9403H42.0498ZM46.6666 57.3908C45.8798 57.3908 45.2324 56.7436 45.2324 55.9408H44.2324C44.2324 57.288 45.3197 58.3908 46.6666 58.3908V57.3908ZM48.1008 55.9408C48.1008 56.7436 47.4534 57.3908 46.6666 57.3908V58.3908C48.0135 58.3908 49.1008 57.288 49.1008 55.9408H48.1008ZM46.6666 54.4904C47.4533 54.4904 48.1008 55.1375 48.1008 55.9408H49.1008C49.1008 54.5932 48.0136 53.4904 46.6666 53.4904V54.4904ZM45.2324 55.9408C45.2324 55.1375 45.8799 54.4904 46.6666 54.4904V53.4904C45.3196 53.4904 44.2324 54.5932 44.2324 55.9408H45.2324Z" fill="#7DB7FD"/>
<path fill-rule="evenodd" clip-rule="evenodd" d="M86.9535 70.4916C84.9107 69.6367 83.5222 67.7246 83.3295 65.5014C83.2499 64.5806 82.4695 63.8632 81.551 63.8632H81.5402L79.5833 63.8747V26.7827C79.5833 24.6535 77.8651 22.9219 75.7535 22.9219H17.5807C15.4692 22.9219 13.751 24.654 13.751 26.7827V85.428C13.751 87.5573 15.4692 89.2889 17.5807 89.2889H68.36C69.8651 90.6194 71.6469 91.8232 73.7551 92.8031C74.1223 92.9744 74.5883 92.9755 74.9629 92.7962C86.0515 87.4799 87.9294 76.0234 88.2409 72.6387C88.3261 71.7127 87.8089 70.8492 86.9535 70.4916ZM15.9336 85.428V26.7827C15.9336 25.8671 16.6725 25.1222 17.5807 25.1222H75.7535C76.6618 25.1222 77.4007 25.8671 77.4007 26.7827V63.8873L66.8407 63.9503C65.9035 63.9555 65.1424 64.6728 65.0702 65.6183C64.9003 67.8421 63.5322 69.7679 61.4991 70.6446C60.6516 71.0096 60.1469 71.8777 60.2429 72.8037C60.4925 75.2074 61.5815 81.6829 66.1979 87.0886H17.5807C16.6725 87.0886 15.9336 86.3437 15.9336 85.428ZM62.4204 72.6404C62.7563 75.7735 64.5945 85.9168 74.3462 90.652C84.0428 85.8016 85.7627 75.6366 86.0617 72.5006C83.409 71.3672 81.5737 68.9285 81.1958 66.0658L67.2107 66.1483C66.8663 69.0162 65.0588 71.4766 62.4204 72.6404Z" fill="#0277FF"/>
<path d="M70 77L73.3333 81L80 73" stroke="#7DB7FD" stroke-linecap="round"/>
<path fill-rule="evenodd" clip-rule="evenodd" d="M89 60C91.2091 60 93 58.2091 93 56C93 53.7909 91.2091 52 89 52C86.7909 52 85 53.7909 85 56C85 58.2091 86.7909 60 89 60Z" stroke="#7DB7FD" stroke-width="2"/>
</svg>
