<svg xmlns="http://www.w3.org/2000/svg" viewBox="-10375 1357 138 24"><defs><style>.a{fill:#f3910f}.b{fill:#29304d}</style></defs><path class="a" d="M-10338.302 1370.164a6.8 6.8 0 0 1 10.923-5.182 1.459 1.459 0 0 1 .533 1.2 1.619 1.619 0 0 1-1.6 1.6 2.241 2.241 0 0 1-1.066-.332 3.591 3.591 0 0 0-2.264-.8 3.238 3.238 0 0 0-3.064 3.457v.066a3.221 3.221 0 0 0 3.2 3.457 3.594 3.594 0 0 0 2.331-.864 1.759 1.759 0 0 1 1-.332 1.506 1.506 0 0 1 1.532 1.529 1.419 1.419 0 0 1-.533 1.13 6.059 6.059 0 0 1-4.465 1.589 6.448 6.448 0 0 1-6.527-6.518zm13.186 0a6.624 6.624 0 0 1 6.86-6.582 6.554 6.554 0 0 1 6.793 6.515v.066a6.831 6.831 0 0 1-13.653 0zm10.19 0a3.343 3.343 0 0 0-3.33-3.524 3.232 3.232 0 0 0-3.26 3.457v.066a3.325 3.325 0 0 0 3.33 3.457 3.271 3.271 0 0 0 3.26-3.456zm5.73-9.375c0-1.064.866-1.662 2-1.662a1.785 1.785 0 0 1 2 1.662v.066c0 1.064-.866 1.662-2 1.662a1.793 1.793 0 0 1-2-1.729zm.2 4.654a1.8 1.8 0 0 1 3.6 0v9.307a1.8 1.8 0 0 1-3.6 0zm6.46 0a1.8 1.8 0 0 1 3.6 0v.133a4.388 4.388 0 0 1 3.73-1.994c2.731 0 4.263 1.8 4.263 4.654v6.515a1.8 1.8 0 0 1-3.6 0v-5.385c0-1.662-.8-2.593-2.2-2.593s-2.264.864-2.264 2.593v5.385a1.8 1.8 0 0 1-3.6 0v-9.308z"/><path class="b" d="M-10287.95 1375.216a1.4 1.4 0 0 1-.666-1.2 1.365 1.365 0 0 1 1.4-1.4 1.344 1.344 0 0 1 .733.2 6.839 6.839 0 0 0 3.4 1.13c1.066 0 1.532-.4 1.532-.931v-.066c0-.8-1.2-1.064-2.6-1.463-1.8-.532-3.8-1.33-3.8-3.789v-.066c0-2.593 2.065-3.989 4.6-3.989a8.412 8.412 0 0 1 3.93 1 1.454 1.454 0 0 1 .866 1.33 1.421 1.421 0 0 1-1.465 1.4 2.37 2.37 0 0 1-.666-.133 7.248 7.248 0 0 0-2.731-.8c-.866 0-1.332.4-1.332.864v.066c0 .731 1.2 1.064 2.6 1.529 1.8.6 3.8 1.463 3.8 3.723v.066c0 2.792-2.131 4.055-4.862 4.055a10.15 10.15 0 0 1-4.739-1.526zm11.921-9.773a1.8 1.8 0 0 1 3.6 0v.133a4.581 4.581 0 0 1 3.93-2.061c2.93 0 5.728 2.327 5.728 6.515v.066c0 4.188-2.731 6.515-5.728 6.515a4.862 4.862 0 0 1-3.93-1.861v3.789a1.8 1.8 0 0 1-3.6 0zm9.724 4.654a3.09 3.09 0 1 0-6.127-.066v.066a3.163 3.163 0 0 0 3.064 3.457c1.664.066 3.063-1.33 3.063-3.457zm5.728.067a6.624 6.624 0 0 1 6.86-6.582 6.554 6.554 0 0 1 6.793 6.515v.066a6.831 6.831 0 0 1-13.653 0zm10.124 0a3.343 3.343 0 0 0-3.33-3.524 3.232 3.232 0 0 0-3.264 3.457v.066a3.325 3.325 0 0 0 3.33 3.457 3.232 3.232 0 0 0 3.264-3.456zm6.726 2.658v-5.983h-.133a1.529 1.529 0 1 1 0-3.058h.133v-1.591a1.8 1.8 0 0 1 3.6 0v1.6h1.6a1.529 1.529 0 1 1 0 3.058h-1.6v5.385c0 .8.333 1.2 1.132 1.2h.4a1.477 1.477 0 0 1 1.465 1.463 1.38 1.38 0 0 1-.932 1.33 5.186 5.186 0 0 1-2.065.332c-2.135.054-3.6-.811-3.6-3.736zm-102.101.798c0 4.055-5.062 7.379-11.256 7.379s-11.256-3.324-11.256-7.379a4.557 4.557 0 0 1 .666-2.46 7.807 7.807 0 0 1 2.734-2.792 11.737 11.737 0 0 0 7.859 2.859 11.864 11.864 0 0 0 7.856-2.859c2.131 1.33 3.397 3.191 3.397 5.252zm-20.58-6.91a10.485 10.485 0 0 0-1.265 1 8.922 8.922 0 0 0-2.131 2.925l-2.196-.538a8.677 8.677 0 0 1 1.4-2.393h-4.4v-2.194h7.859a11.56 11.56 0 0 0 .733 1.2z"/><path class="b" d="M-10348.092 1361.255a6.217 6.217 0 0 1-.466 2.46 7.369 7.369 0 0 1-2.864 3.524 10.135 10.135 0 0 1-11.322 0 7.149 7.149 0 0 1-2.8-3.524 6 6 0 0 1-.466-2.46 7.153 7.153 0 0 1 1.467-4.255 9.4 9.4 0 0 0 7.526 3.524 9.4 9.4 0 0 0 7.526-3.524 7.554 7.554 0 0 1 1.399 4.255z"/></svg>