<svg width="24" height="24" viewBox="0 0 24 24" fill="none" xmlns="http://www.w3.org/2000/svg">
<path fill-rule="evenodd" clip-rule="evenodd" d="M1.23835 3.64573L9.00192 12.8261V19C9.00192 19.3788 9.21592 19.725 9.55471 19.8944L13.5547 21.8944C14.2196 22.2269 15.0019 21.7434 15.0019 21V12.8261L22.7655 3.64573C23.3152 2.99575 22.8532 2 22.0019 2H2.00192C1.15069 2 0.688693 2.99575 1.23835 3.64573ZM4.15723 4H19.8466L13.2384 11.8143C13.0857 11.9948 13.0019 12.2236 13.0019 12.46V19.382L11.0019 18.382V12.46C11.0019 12.2236 10.9182 11.9948 10.7655 11.8143L4.15723 4Z" fill="black"/>
<mask id="mask0" mask-type="alpha" maskUnits="userSpaceOnUse" x="1" y="2" width="23" height="21">
<path fill-rule="evenodd" clip-rule="evenodd" d="M1.23835 3.64573L9.00192 12.8261V19C9.00192 19.3788 9.21592 19.725 9.55471 19.8944L13.5547 21.8944C14.2196 22.2269 15.0019 21.7434 15.0019 21V12.8261L22.7655 3.64573C23.3152 2.99575 22.8532 2 22.0019 2H2.00192C1.15069 2 0.688693 2.99575 1.23835 3.64573ZM4.15723 4H19.8466L13.2384 11.8143C13.0857 11.9948 13.0019 12.2236 13.0019 12.46V19.382L11.0019 18.382V12.46C11.0019 12.2236 10.9182 11.9948 10.7655 11.8143L4.15723 4Z" fill="white"/>
</mask>
<g mask="url(#mask0)">
<rect width="24" height="24" fill="black"/>
</g>
</svg>
