<svg width="8" height="322" viewBox="0 0 8 322" fill="none" xmlns="http://www.w3.org/2000/svg">
<path d="M4 0V321.278" stroke="#4A4A4A" stroke-width="2" stroke-dasharray="5"/>
<path fill-rule="evenodd" clip-rule="evenodd" d="M4 131C6.20914 131 8 129.209 8 127C8 124.791 6.20914 123 4 123C1.79086 123 0 124.791 0 127C0 129.209 1.79086 131 4 131Z" fill="#4A4A4A"/>
<path fill-rule="evenodd" clip-rule="evenodd" d="M4 279C6.20914 279 8 277.209 8 275C8 272.791 6.20914 271 4 271C1.79086 271 0 272.791 0 275C0 277.209 1.79086 279 4 279Z" fill="#4A4A4A"/>
<path fill-rule="evenodd" clip-rule="evenodd" d="M4 18C6.20914 18 8 16.2091 8 14C8 11.7909 6.20914 10 4 10C1.79086 10 0 11.7909 0 14C0 16.2091 1.79086 18 4 18Z" fill="#4A4A4A"/>
</svg>
