<svg width="8" height="421" viewBox="0 0 8 421" fill="none" xmlns="http://www.w3.org/2000/svg">
<path d="M4 0V420.278" stroke="#4A4A4A" stroke-width="2" stroke-dasharray="5"/>
<path fill-rule="evenodd" clip-rule="evenodd" d="M4 285C6.20914 285 8 283.209 8 281C8 278.791 6.20914 277 4 277C1.79086 277 0 278.791 0 281C0 283.209 1.79086 285 4 285Z" fill="#4A4A4A"/>
<path fill-rule="evenodd" clip-rule="evenodd" d="M4 402C6.20914 402 8 400.209 8 398C8 395.791 6.20914 394 4 394C1.79086 394 0 395.791 0 398C0 400.209 1.79086 402 4 402Z" fill="#4A4A4A"/>
<path fill-rule="evenodd" clip-rule="evenodd" d="M4 137C6.20914 137 8 135.209 8 133C8 130.791 6.20914 129 4 129C1.79086 129 0 130.791 0 133C0 135.209 1.79086 137 4 137Z" fill="#4A4A4A"/>
<path fill-rule="evenodd" clip-rule="evenodd" d="M4 18C6.20914 18 8 16.2091 8 14C8 11.7909 6.20914 10 4 10C1.79086 10 0 11.7909 0 14C0 16.2091 1.79086 18 4 18Z" fill="#4A4A4A"/>
</svg>
