<svg width="24" height="24" viewBox="0 0 24 24" fill="none" xmlns="http://www.w3.org/2000/svg">
<path fill-rule="evenodd" clip-rule="evenodd" d="M14.1275 21.2867L21.2992 14.115C22.4624 12.9449 22.4624 11.0551 21.2992 9.885L12.7071 1.29289C12.5196 1.10536 12.2652 1 12 1H2C1.44772 1 1 1.44772 1 2V12C1 12.2654 1.10552 12.5199 1.29331 12.7075L9.88331 21.2875C10.4452 21.85 11.2088 22.1666 12.005 22.1666C12.8012 22.1666 13.5648 21.85 14.1275 21.2867ZM11.5858 3L19.8829 11.2971C20.2682 11.6847 20.2685 12.314 19.8817 12.7041L12.7129 19.8729C12.5249 20.0611 12.2704 20.1666 12.005 20.1666C11.7396 20.1666 11.4851 20.0611 11.2975 19.8733L3 11.5854V3H11.5858Z" fill="black"/>
<mask id="mask0" mask-type="alpha" maskUnits="userSpaceOnUse" x="1" y="1" width="22" height="22">
<path fill-rule="evenodd" clip-rule="evenodd" d="M14.1275 21.2867L21.2992 14.115C22.4624 12.9449 22.4624 11.0551 21.2992 9.885L12.7071 1.29289C12.5196 1.10536 12.2652 1 12 1H2C1.44772 1 1 1.44772 1 2V12C1 12.2654 1.10552 12.5199 1.29331 12.7075L9.88331 21.2875C10.4452 21.85 11.2088 22.1666 12.005 22.1666C12.8012 22.1666 13.5648 21.85 14.1275 21.2867ZM11.5858 3L19.8829 11.2971C20.2682 11.6847 20.2685 12.314 19.8817 12.7041L12.7129 19.8729C12.5249 20.0611 12.2704 20.1666 12.005 20.1666C11.7396 20.1666 11.4851 20.0611 11.2975 19.8733L3 11.5854V3H11.5858Z" fill="white"/>
</mask>
<g mask="url(#mask0)">
<rect width="24" height="24" fill="black"/>
</g>
</svg>
