<svg width="32" height="32" viewBox="0 0 32 32" fill="none" xmlns="http://www.w3.org/2000/svg">
<path fill-rule="evenodd" clip-rule="evenodd" d="M14.6665 18.1143V2.66659C14.6665 1.93021 15.2635 1.33325 15.9998 1.33325C16.7362 1.33325 17.3332 1.93021 17.3332 2.66659V18.1143L20.3904 15.0571C20.9111 14.5364 21.7553 14.5364 22.276 15.0571C22.7967 15.5778 22.7967 16.422 22.276 16.9427L16.9436 22.2751C16.9404 22.2783 16.9372 22.2815 16.9339 22.2847C16.8081 22.4083 16.6639 22.5018 16.5102 22.5654C16.353 22.6306 16.1806 22.6666 15.9998 22.6666C15.2635 22.6666 14.6665 22.0696 14.6665 21.3333V18.1143ZM2.6665 22.6666V26.6666C2.6665 28.8757 4.45736 30.6666 6.6665 30.6666H25.3332C27.5423 30.6666 29.3332 28.8757 29.3332 26.6666V22.6666C29.3332 21.9302 28.7362 21.3333 27.9998 21.3333C27.2635 21.3333 26.6665 21.9302 26.6665 22.6666V26.6666C26.6665 27.403 26.0696 27.9999 25.3332 27.9999H6.6665C5.93012 27.9999 5.33317 27.403 5.33317 26.6666V22.6666C5.33317 21.9302 4.73622 21.3333 3.99984 21.3333C3.26346 21.3333 2.6665 21.9302 2.6665 22.6666Z" fill="black"/>
<mask id="mask0" mask-type="alpha" maskUnits="userSpaceOnUse" x="2" y="1" width="28" height="30">
<path fill-rule="evenodd" clip-rule="evenodd" d="M14.6665 18.1143V2.66659C14.6665 1.93021 15.2635 1.33325 15.9998 1.33325C16.7362 1.33325 17.3332 1.93021 17.3332 2.66659V18.1143L20.3904 15.0571C20.9111 14.5364 21.7553 14.5364 22.276 15.0571C22.7967 15.5778 22.7967 16.422 22.276 16.9427L16.9436 22.2751C16.9404 22.2783 16.9372 22.2815 16.9339 22.2847C16.8081 22.4083 16.6639 22.5018 16.5102 22.5654C16.353 22.6306 16.1806 22.6666 15.9998 22.6666C15.2635 22.6666 14.6665 22.0696 14.6665 21.3333V18.1143ZM2.6665 22.6666V26.6666C2.6665 28.8757 4.45736 30.6666 6.6665 30.6666H25.3332C27.5423 30.6666 29.3332 28.8757 29.3332 26.6666V22.6666C29.3332 21.9302 28.7362 21.3333 27.9998 21.3333C27.2635 21.3333 26.6665 21.9302 26.6665 22.6666V26.6666C26.6665 27.403 26.0696 27.9999 25.3332 27.9999H6.6665C5.93012 27.9999 5.33317 27.403 5.33317 26.6666V22.6666C5.33317 21.9302 4.73622 21.3333 3.99984 21.3333C3.26346 21.3333 2.6665 21.9302 2.6665 22.6666Z" fill="white"/>
</mask>
<g mask="url(#mask0)">
<rect width="32" height="32" fill="white"/>
</g>
</svg>
